# Blender 5.1.0
# www.blender.org
mtllib Road 3c.mtl
o Plane.001
v -4.000000 0.000000 0.000000
v 0.000000 0.000000 0.000000
v -4.000000 0.000000 -10.000000
v 0.000000 0.000000 -10.000000
v -3.994497 0.049859 -10.000000
v -3.994497 0.049859 0.000000
v -0.005503 0.049859 0.000000
v -0.005503 0.049859 -10.000000
v -3.985565 0.072403 -10.000000
v -3.985565 0.072403 0.000000
v -0.010828 0.072403 0.000000
v -0.010828 0.072403 -10.000000
v -3.957556 0.087732 -10.000000
v -3.957556 0.087732 0.000000
v -0.038837 0.087732 0.000000
v -0.038837 0.087732 -10.000000
v 0.000000 0.000000 -8.570481
v -3.985565 0.072403 -9.716593
v -0.038837 0.087732 -8.611624
v -3.994497 0.049859 -9.762469
v -4.000000 0.000000 -9.803815
v -0.005503 0.049859 -8.575676
v -3.957556 0.087732 -9.706460
v -0.010828 0.072403 -8.595348
v -3.834549 0.087732 -9.645936
v -3.354453 0.087732 -9.505051
v -2.964452 0.087732 -9.548508
v -2.553461 0.087732 -9.412012
v -2.441648 0.087732 -9.356842
v -1.767636 0.087732 -9.376805
v -1.146570 0.087732 -9.215211
v -1.034291 0.087732 -9.016837
v -0.414362 0.087732 -8.796405
v -0.268923 0.000000 -8.499889
v -0.474663 0.000000 -8.575967
v -0.787746 0.000000 -8.727613
v -1.049044 0.000000 -8.791939
v -1.312185 0.000000 -8.961161
v -1.480779 0.000000 -9.144047
v -1.881944 0.000000 -9.202776
v -2.037737 0.000000 -9.223093
v -2.270267 0.000000 -9.110768
v -2.493091 0.000000 -9.192548
v -2.763602 0.000000 -9.340164
v -2.927675 0.000000 -9.316794
v -3.120788 0.000000 -9.277066
v -3.339040 0.000000 -9.274837
v -3.610140 0.000000 -9.363561
v -3.807833 0.000000 -9.492886
v 0.000000 0.000000 -2.385280
v -0.010828 0.072403 -2.417705
v -3.985565 0.072403 -2.118131
v -3.994497 0.049859 -2.117662
v -4.000000 0.000000 -2.113009
v -3.957556 0.087732 -2.109147
v -0.005503 0.049859 -2.408177
v -0.038837 0.087732 -2.417077
v -3.644748 0.087732 -2.119075
v -3.378281 0.087732 -2.211616
v -2.895029 0.087732 -2.164863
v -2.509827 0.087732 -2.272042
v -1.961772 0.087732 -2.236223
v -1.552691 0.087732 -2.267546
v -1.066460 0.087732 -2.287555
v -0.789136 0.087732 -2.403413
v -0.233089 0.000000 -2.516757
v -0.525464 0.000000 -2.492059
v -0.699115 0.000000 -2.574368
v -0.874677 0.000000 -2.567851
v -1.798553 0.000000 -2.465198
v -2.196528 0.000000 -2.485009
v -2.341125 0.000000 -2.463469
v -3.411023 0.000000 -2.359061
v -3.598690 0.000000 -2.302346
v -3.709149 0.000000 -2.219562
v -3.798370 0.000000 -2.214126
v -1.291625 0.087732 -2.275057
v -1.094905 0.087732 -2.199985
v -1.112575 0.087732 -2.077729
v -1.009717 0.085877 -1.848859
v -1.039073 0.085877 -1.632390
v -1.184130 0.085877 -1.415239
v -1.650610 0.085877 -1.299667
v -1.904117 0.085877 -1.227884
v -1.784678 0.085877 -1.293736
v -1.496311 0.085877 -1.467415
v -1.160821 0.085877 -1.610361
v -1.118774 0.085877 -1.869180
v -1.223212 0.087732 -2.140495
v -1.238592 0.087732 -2.225401
v -1.585067 0.000000 -2.443737
v -0.948386 0.000000 -2.548419
v -1.097894 0.000000 -2.424638
v -1.130339 0.000000 -2.361782
v -1.151159 0.000000 -2.273001
v -1.155007 0.000000 -2.169094
v -1.147709 0.000000 -2.101983
v -1.056216 -0.001856 -1.844582
v -1.176425 -0.001856 -1.444332
v -1.571491 -0.001856 -1.384953
v -1.173877 -0.001856 -1.547121
v -1.096011 -0.001856 -1.884720
v -1.179930 0.000000 -2.150492
v -1.201676 0.000000 -2.301396
v -1.258006 0.000000 -2.349817
v -1.316953 0.000000 -2.401918
vn -0.0000 -1.0000 -0.0000
vn -0.9297 0.3683 -0.0000
vn 0.9940 0.1097 -0.0000
vn -0.9940 0.1097 -0.0000
vn -0.0000 -0.0000 -1.0000
vn -0.0000 -0.0000 1.0000
vn 0.9732 0.2299 -0.0000
vn -0.0000 1.0000 -0.0000
vn 0.4801 0.8772 -0.0000
vn -0.4801 0.8772 -0.0000
vn -0.4480 -0.0339 -0.8934
vn -0.1241 0.6607 -0.7403
vn 0.8521 0.4507 -0.2659
vn -0.1592 0.8743 -0.4585
vn 0.0502 0.8534 -0.5189
vn -0.0392 0.7650 -0.6428
vn 0.8709 0.4752 -0.1255
vn -0.0287 0.9264 -0.3754
vn 0.0710 0.8876 -0.4550
vn 0.4670 0.2541 0.8470
vn 0.4850 0.3413 0.8052
vn -0.7180 0.6618 -0.2156
vn -0.9058 0.2732 0.3239
vn 0.9743 0.0170 0.2247
vn 0.3354 0.5175 0.7872
vn 0.2141 0.9463 -0.2422
vn -0.7229 0.6698 -0.1695
vn -0.6174 0.7192 -0.3187
vn -0.8264 0.1105 -0.5521
vn -0.8136 0.4492 0.3693
vn -0.0437 0.8931 -0.4478
vn -0.8296 0.5575 -0.0307
vn -0.1945 0.5879 -0.7852
vn -0.2062 0.8450 -0.4935
vn -0.1113 0.8997 -0.4221
vn 0.1772 0.9104 -0.3739
vn -0.0509 0.7968 -0.6021
vn 0.4610 -0.2508 -0.8512
vn -0.4074 0.1427 -0.9020
vn -0.0209 0.7513 -0.6596
vn -0.3558 0.8050 -0.4748
vn -0.1456 0.8641 -0.4818
vn -0.0698 0.9655 -0.2508
vn 0.0260 0.9172 -0.3975
vn 0.0173 0.9377 -0.3470
vn 0.0454 0.8909 -0.4520
vn -0.0220 0.6435 -0.7651
vn 0.5030 0.6770 -0.5372
vn 0.8781 0.4513 -0.1591
vn 0.8932 0.2923 -0.3418
vn 0.9624 0.2220 0.1564
vn 0.3314 0.4797 0.8125
vn -0.2243 0.5677 -0.7921
vn -0.0440 0.9545 -0.2951
vn 0.4855 0.6673 -0.5648
vn -0.8797 0.4604 -0.1193
vn -0.9329 0.3455 0.1014
vn -0.7186 0.6551 -0.2334
vn -0.8383 0.5316 -0.1212
vn -0.2426 0.9248 -0.2931
vn -0.0172 0.8858 -0.4637
vn -0.0132 0.6908 -0.7229
vn 0.2323 0.4596 -0.8572
vn 0.4643 -0.3268 -0.8232
vn -0.1418 0.3003 -0.9432
vn 0.2518 0.1278 0.9593
vn 0.0312 0.7539 0.6563
vn -0.1247 0.9331 0.3373
vn -0.1586 0.9315 0.3274
vn -0.2696 0.9508 0.1526
vn -0.1252 0.8675 0.4813
vn -0.0548 0.9056 0.4205
vn 0.1236 0.9588 0.2558
vn -0.1566 0.8908 0.4266
vn -0.2262 0.8814 0.4146
vn 0.0494 0.9366 0.3468
vn -0.0879 0.9300 0.3570
vn -0.1180 0.9253 0.3605
vn -0.1500 0.8462 0.5113
vn -0.1760 0.9469 0.2691
vn 0.0036 0.9345 0.3559
vn 0.0868 0.6666 0.7404
vn -0.1760 0.9171 0.3577
vn -0.1405 0.9078 0.3951
vn -0.2199 0.9136 0.3420
vn -0.2103 0.9582 0.1938
vn -0.0611 0.9068 0.4170
vn 0.0153 0.8566 0.5158
vn -0.2028 0.8887 0.4111
vn -0.1723 0.8374 0.5187
vn 0.0364 0.9446 0.3262
vn 0.0706 0.9365 0.3434
vn -0.2529 0.8197 0.5140
vn -0.5381 0.5771 0.6143
vn -0.8049 -0.3237 0.4974
vn -0.7350 -0.5409 0.4089
vt 0.000000 0.000000
vt 0.000000 0.211301
vt 0.050407 0.221413
vt 0.072713 0.221956
vt 0.100328 0.230235
vt 0.147244 0.235906
vt 0.414719 0.246347
vt 0.450868 0.248501
vt 0.550362 0.246520
vt 0.603733 0.244374
vt 0.670762 0.240192
vt 0.685498 0.234982
vt 0.699581 0.230140
vt 0.705344 0.215042
vt 0.699315 0.192953
vt 0.689032 0.157990
vt 0.691068 0.124320
vt 0.692461 0.148313
vt 0.705518 0.192890
vt 0.713368 0.210183
vt 0.711248 0.216909
vt 0.712210 0.227300
vt 0.717415 0.236178
vt 0.725526 0.242464
vt 0.762904 0.254842
vt 0.781331 0.256785
vt 0.825221 0.257437
vt 0.868634 0.249206
vt 0.941728 0.251676
vt 1.000000 0.238528
vt 1.000000 0.000000
vt 0.000000 1.000000
vt 0.000000 0.976247
vt 0.000000 0.971659
vt 1.000000 0.240818
vt 0.000000 0.980381
vt 1.000000 1.000000
vt 1.000000 0.241770
vt 1.000000 0.241708
vt 0.808535 0.240341
vt 0.731715 0.230071
vt 0.724197 0.221997
vt 0.726283 0.207748
vt 0.721141 0.193481
vt 0.708000 0.172214
vt 0.699497 0.145635
vt 0.695926 0.113400
vt 0.697764 0.082184
vt 0.690752 0.098417
vt 0.687132 0.135091
vt 0.688453 0.166750
vt 0.697324 0.191320
vt 0.701959 0.214202
vt 0.695999 0.225089
vt 0.693921 0.229009
vt 0.613687 0.226755
vt 0.509295 0.223622
vt 0.369439 0.227204
vt 0.271142 0.216486
vt 0.147823 0.221162
vt 0.079824 0.211908
vt 0.000000 0.210915
vt 0.000000 0.970646
vt 1.000000 0.859535
vt 1.000000 0.857568
vt 1.000000 0.857048
vt 0.031390 0.964594
vt 0.153903 0.950505
vt 0.253426 0.954851
vt 0.358305 0.941201
vt 0.386838 0.935684
vt 0.558836 0.937681
vt 0.740386 0.922830
vt 0.737682 0.897075
vt 0.904171 0.879640
vt 1.000000 0.861162
vt 0.932769 0.849989
vt 0.881334 0.857597
vt 0.803064 0.872761
vt 0.737739 0.879194
vt 0.671954 0.896116
vt 0.629805 0.914405
vt 0.529514 0.920277
vt 0.490566 0.922309
vt 0.432433 0.911077
vt 0.376727 0.919255
vt 0.309099 0.934016
vt 0.268081 0.931679
vt 0.219803 0.927707
vt 0.165240 0.927484
vt 0.097465 0.936356
vt 0.048042 0.949289
vt 0.000000 0.211766
vt 0.000000 0.211813
s 0
f 1/1/1 54/2/1 76/3/1 75/4/1 74/5/1 73/6/1 72/7/1 71/8/1 70/9/1 91/10/1 106/11/1 105/12/1 104/13/1 103/14/1 102/15/1 101/16/1 100/17/1 99/18/1 98/19/1 97/20/1 96/21/1 95/22/1 94/23/1 93/24/1 92/25/1 69/26/1 68/27/1 67/28/1 66/29/1 50/30/1 2/31/1
f 5/32/2 20/33/2 18/34/2 9/32/2
f 2/31/3 50/30/3 56/35/3 7/31/3
f 3/32/4 21/36/4 20/33/4 5/32/4
f 4/37/5 3/32/5 5/32/5 8/37/5
f 1/1/6 2/31/6 7/31/6 6/1/6
f 12/37/5 9/32/5 13/32/5 16/37/5
f 8/37/5 5/32/5 9/32/5 12/37/5
f 6/1/6 7/31/6 11/31/6 10/1/6
f 7/31/7 56/35/7 51/38/7 11/31/7
f 14/1/8 15/31/8 57/39/8 65/40/8 64/41/8 78/42/8 79/43/8 80/44/8 81/45/8 82/46/8 83/47/8 84/48/8 85/49/8 86/50/8 87/51/8 88/52/8 89/53/8 90/54/8 77/55/8 63/56/8 62/57/8 61/58/8 60/59/8 59/60/8 58/61/8 55/62/8
f 10/1/6 11/31/6 15/31/6 14/1/6
f 11/31/9 51/38/9 57/39/9 15/31/9
f 9/32/10 18/34/10 23/63/10 13/32/10
f 24/64/7 22/65/7 8/37/7 12/37/7
f 22/65/3 17/66/3 4/37/3 8/37/3
f 23/63/8 25/67/8 26/68/8 27/69/8 28/70/8 29/71/8 30/72/8 31/73/8 32/74/8 33/75/8 19/76/8 16/37/8 13/32/8
f 19/76/9 24/64/9 12/37/9 16/37/9
f 17/66/1 34/77/1 35/78/1 36/79/1 37/80/1 38/81/1 39/82/1 40/83/1 41/84/1 42/85/1 43/86/1 44/87/1 45/88/1 46/89/1 47/90/1 48/91/1 49/92/1 21/36/1 3/32/1 4/37/1
f 53/93/4 54/2/4 1/1/4 6/1/4
f 55/62/10 52/94/10 10/1/10 14/1/10
f 52/94/2 53/93/2 6/1/2 10/1/2
f 53/93/11 76/3/11 54/2/11
f 55/62/12 76/3/12 52/94/12
f 102/15/13 103/14/13 89/53/13
f 59/60/14 74/5/14 58/61/14
f 60/59/15 73/6/15 59/60/15
f 58/61/16 75/4/16 76/3/16
f 103/14/17 104/13/17 90/54/17
f 63/56/18 70/9/18 62/57/18
f 63/56/19 106/11/19 91/10/19
f 100/17/20 85/49/20 84/48/20
f 100/17/21 86/50/21 85/49/21
f 81/45/22 98/19/22 99/18/22
f 79/43/23 97/20/23 98/19/23
f 87/51/24 101/16/24 102/15/24
f 86/50/25 101/16/25 87/51/25
f 105/12/26 106/11/26 63/56/26
f 64/41/27 94/23/27 95/22/27
f 64/41/28 93/24/28 94/23/28
f 82/46/29 81/45/29 99/18/29
f 80/44/30 79/43/30 98/19/30
f 61/58/31 72/7/31 73/6/31
f 95/22/32 96/21/32 78/42/32
f 100/17/33 83/47/33 82/46/33
f 64/41/34 65/40/34 93/24/34
f 69/26/35 92/25/35 65/40/35
f 65/40/36 67/28/36 68/27/36
f 57/39/37 66/29/37 67/28/37
f 56/35/38 66/29/38 51/38/38
f 53/93/39 52/94/39 76/3/39
f 55/62/40 58/61/40 76/3/40
f 58/61/41 74/5/41 75/4/41
f 59/60/42 73/6/42 74/5/42
f 60/59/43 61/58/43 73/6/43
f 61/58/44 62/57/44 72/7/44
f 62/57/45 70/9/45 71/8/45
f 63/56/46 91/10/46 70/9/46
f 77/55/47 105/12/47 63/56/47
f 90/54/48 104/13/48 77/55/48
f 89/53/49 103/14/49 90/54/49
f 88/52/50 102/15/50 89/53/50
f 88/52/51 87/51/51 102/15/51
f 86/50/52 100/17/52 101/16/52
f 100/17/53 84/48/53 83/47/53
f 62/57/54 71/8/54 72/7/54
f 104/13/55 105/12/55 77/55/55
f 98/19/56 81/45/56 80/44/56
f 79/43/57 96/21/57 97/20/57
f 78/42/58 64/41/58 95/22/58
f 96/21/59 79/43/59 78/42/59
f 65/40/60 92/25/60 93/24/60
f 65/40/61 68/27/61 69/26/61
f 65/40/62 57/39/62 67/28/62
f 57/39/63 51/38/63 66/29/63
f 56/35/64 50/30/64 66/29/64
f 99/18/65 100/17/65 82/46/65
f 22/65/66 34/77/66 17/66/66
f 19/76/67 34/77/67 24/64/67
f 33/75/68 35/78/68 34/77/68
f 33/75/69 36/79/69 35/78/69
f 31/73/70 38/81/70 32/74/70
f 30/72/71 39/82/71 31/73/71
f 30/72/72 41/84/72 40/83/72
f 29/71/73 42/85/73 41/84/73
f 29/71/74 43/86/74 42/85/74
f 28/70/75 44/87/75 43/86/75
f 27/69/76 45/88/76 44/87/76
f 32/74/77 37/80/77 36/79/77
f 48/91/78 47/90/78 26/68/78
f 26/68/79 25/67/79 49/92/79
f 48/91/80 26/68/80 49/92/80
f 47/90/81 46/89/81 26/68/81
f 22/65/82 24/64/82 34/77/82
f 19/76/83 33/75/83 34/77/83
f 33/75/84 32/74/84 36/79/84
f 32/74/85 38/81/85 37/80/85
f 31/73/86 39/82/86 38/81/86
f 30/72/87 40/83/87 39/82/87
f 30/72/88 29/71/88 41/84/88
f 29/71/89 28/70/89 43/86/89
f 28/70/90 27/69/90 44/87/90
f 26/68/91 46/89/91 27/69/91
f 46/89/92 45/88/92 27/69/92
f 25/67/93 23/63/93 49/92/93
f 23/63/94 18/34/94 49/92/94
f 21/36/95 49/92/95 20/33/95
f 49/92/96 18/34/96 20/33/96
