# Blender 5.1.0
# www.blender.org
mtllib livingtreeforest2noelle.mtl
o Cone.009
v -0.685277 2.458386 -4.824148
v -0.038100 2.458386 -5.332620
v 0.000000 3.518486 -4.637462
v -0.385425 2.458386 -4.057683
v 0.447071 2.458386 -4.092452
v 0.661730 2.458386 -4.880406
v -0.509112 1.794043 -5.244198
v 0.407084 1.794043 -5.298548
v 0.760704 1.794043 -4.439299
v 0.063057 1.794043 -3.853904
v -0.721732 1.794043 -4.351359
v 0.000000 2.976217 -4.637462
v -0.000000 -0.557712 -4.787138
v 0.143064 -0.555198 -4.749485
v -0.156184 -0.550094 -4.782524
v -0.000000 -0.322448 -4.817133
v -0.000000 -0.076484 -4.817133
v -0.140473 -0.322448 -4.749485
v 0.140473 -0.322448 -4.749485
v 0.140473 -0.076484 -4.749485
v 0.175167 -0.322448 -4.597481
v 0.172576 -0.581624 -4.597481
v 0.175167 -0.076484 -4.597481
v 0.077957 -0.322448 -4.475583
v 0.077957 -0.568411 -4.475583
v 0.077957 -0.076484 -4.475583
v -0.077957 -0.322448 -4.475583
v -0.077957 -0.568411 -4.475583
v -0.077957 -0.076484 -4.475583
v -0.175167 -0.322448 -4.597481
v -0.159456 -0.538040 -4.594437
v -0.175167 -0.076484 -4.597481
v -0.175167 0.415444 -4.597481
v -0.140473 -0.076484 -4.749485
v -0.140473 0.415444 -4.749485
v -0.140473 1.399384 -4.749485
v -0.000000 0.415444 -4.817133
v -0.000000 1.399384 -4.817133
v 0.140473 0.415444 -4.749485
v 0.140473 1.399384 -4.749485
v 0.175167 0.415444 -4.597481
v 0.175167 1.399384 -4.597481
v 0.077957 0.415444 -4.475583
v 0.077957 1.399384 -4.475583
v -0.077957 0.415444 -4.475583
v -0.077957 1.399384 -4.475583
v -0.175167 1.399384 -4.597481
v -0.065434 2.296464 -4.470129
v 0.090029 2.296464 -4.481973
v -0.171624 2.296464 -4.584290
v -0.065434 3.274449 -4.470129
v 0.090029 3.274449 -4.481973
v -0.171624 3.274449 -4.584290
v -0.065434 3.512001 -4.470129
v 0.090029 3.512001 -4.481973
v -0.171624 3.512001 -4.584290
v -0.148577 3.512001 -4.738491
v -0.013649 3.512001 -4.816614
v -0.148577 3.274449 -4.738491
v -0.013649 3.274449 -4.816614
v -0.148577 2.296464 -4.738490
v -0.013649 2.296464 -4.816614
v 0.131557 2.296464 -4.759832
v 0.177698 2.296464 -4.610903
v 0.131557 3.274449 -4.759832
v 0.177698 3.274449 -4.610903
v 0.131557 3.512001 -4.759832
v 0.177698 3.512001 -4.610903
v -0.000000 1.182292 -5.558960
v 0.857211 1.182292 -4.922220
v 0.000000 2.557694 -4.637462
v -0.857211 1.182292 -4.922220
v -0.529785 1.182292 -3.891953
v 0.529785 1.182292 -3.891953
v -0.538366 3.132059 -4.622613
v -0.180177 3.132059 -5.133680
v 0.000000 3.935915 -4.637462
v -0.152552 3.132059 -4.132066
v 0.444084 3.132059 -4.339958
v 0.427011 3.132059 -4.958990
vn -0.0000 -1.0000 -0.0000
vn -0.5441 0.4737 -0.6925
vn -0.8202 0.4737 0.3209
vn 0.0369 0.4692 0.8823
vn 0.8482 0.4765 0.2311
vn 0.4793 0.4692 -0.7417
vn -0.0522 0.4737 -0.8792
vn 0.8167 0.4692 -0.3361
vn 0.5651 0.4765 0.6735
vn -0.4728 0.4692 0.7459
vn -0.8567 0.4737 -0.2040
vn 0.3480 -0.0580 -0.9357
vn -0.0787 -0.9961 -0.0398
vn -0.2363 0.0144 -0.9716
vn -0.4339 -0.0000 -0.9010
vn 0.4339 -0.0000 -0.9010
vn 0.9784 -0.0000 -0.2066
vn 0.9749 -0.0000 -0.2225
vn 0.7858 -0.0040 0.6185
vn 0.7818 -0.0000 0.6235
vn -0.0000 -0.0000 1.0000
vn -0.8042 -0.0235 0.5940
vn -0.7818 -0.0000 0.6235
vn -0.9938 0.0075 -0.1112
vn -0.9749 -0.0000 -0.2225
vn 0.0380 -0.0000 0.9993
vn -0.7576 -0.0000 0.6528
vn 0.0760 -0.0000 0.9971
vn -0.7322 -0.0000 0.6811
vn -0.0000 1.0000 -0.0000
vn -0.9890 -0.0000 -0.1478
vn -0.5011 -0.0000 -0.8654
vn -0.9827 -0.0000 -0.1853
vn -0.4678 -0.0000 -0.8838
vn 0.3642 -0.0000 -0.9313
vn 0.3993 -0.0000 -0.9168
vn 0.9658 -0.0000 -0.2594
vn 0.9552 -0.0000 -0.2959
vn 0.8269 -0.0000 0.5623
vn 0.8050 -0.0000 0.5933
vn 0.5252 0.4737 -0.7070
vn -0.5252 0.4737 -0.7070
vn -0.8416 0.4692 0.2675
vn -0.0000 0.4765 0.8792
vn 0.8416 0.4692 0.2675
vn -0.7212 0.4737 -0.5055
vn -0.6922 0.4737 0.5445
vn 0.2906 0.4692 0.8339
vn 0.8788 0.4765 -0.0242
vn 0.2442 0.4692 -0.8487
vt 0.750000 0.490000
vt 0.978254 0.324164
vt 0.891068 0.055836
vt 0.608932 0.055836
vt 0.521746 0.324164
vt 0.250000 0.490000
vt 0.250000 0.250000
vt 0.478254 0.324164
vt 0.021746 0.324164
vt 0.108932 0.055836
vt 0.391068 0.055836
vt 1.000000 0.500000
vt 1.000000 0.562497
vt 0.857143 0.562497
vt 0.857143 0.500000
vt 0.937640 0.399638
vt 0.983983 0.196595
vt 0.854132 0.033767
vt 0.645868 0.033767
vt 0.516017 0.196595
vt 0.562360 0.399638
vt 0.142857 0.500000
vt 0.142857 0.562497
vt 0.000000 0.562497
vt 0.000000 0.500000
vt 0.142857 0.624995
vt 0.000000 0.624995
vt 1.000000 0.624995
vt 0.857143 0.624995
vt 0.714286 0.562497
vt 0.714286 0.500000
vt 0.714286 0.624995
vt 0.571429 0.562497
vt 0.571429 0.500000
vt 0.571429 0.624995
vt 0.428571 0.562497
vt 0.428571 0.500000
vt 0.428571 0.624995
vt 0.285714 0.562497
vt 0.285714 0.500000
vt 0.285714 0.624995
vt 0.428571 0.749989
vt 0.285714 0.749989
vt 0.142857 0.749989
vt 0.000000 0.749989
vt 0.142857 1.000000
vt 0.000000 1.000000
vt 0.285714 1.000000
vt 1.000000 0.749989
vt 1.000000 1.000000
vt 0.857143 1.000000
vt 0.857143 0.749989
vt 0.714286 1.000000
vt 0.714286 0.749989
vt 0.571429 1.000000
vt 0.571429 0.749989
vt 0.428571 1.000000
vt 0.437640 0.399638
vt 0.062360 0.399638
vt 0.016017 0.196595
vt 0.145868 0.033767
vt 0.354132 0.033767
vt 0.483983 0.196595
s 0
usemtl Material.008
f 1/1/1 2/2/1 6/3/1 5/4/1 4/5/1
f 1/6/2 3/7/2 2/8/2
f 4/9/3 3/7/3 1/6/3
f 5/10/4 3/7/4 4/9/4
f 6/11/5 3/7/5 5/10/5
f 2/8/6 3/7/6 6/11/6
usemtl Material.009
f 7/6/7 12/7/7 8/8/7
f 8/8/8 12/7/8 9/11/8
f 9/11/9 12/7/9 10/10/9
f 7/1/1 8/2/1 9/3/1 10/4/1 11/5/1
f 10/10/10 12/7/10 11/9/10
f 11/9/11 12/7/11 7/6/11
usemtl Material.005
f 13/12/12 16/13/12 19/14/12 14/15/12
f 13/1/13 14/16/13 22/17/13 25/18/13 28/19/13 31/20/13 15/21/13
f 15/22/14 18/23/14 16/24/14 13/25/14
f 18/23/15 34/26/15 17/27/15 16/24/15
f 16/13/16 17/28/16 20/29/16 19/14/16
f 14/15/17 19/14/17 21/30/17 22/31/17
f 19/14/18 20/29/18 23/32/18 21/30/18
f 22/31/19 21/30/19 24/33/19 25/34/19
f 21/30/20 23/32/20 26/35/20 24/33/20
f 25/34/21 24/33/21 27/36/21 28/37/21
f 24/33/21 26/35/21 29/38/21 27/36/21
f 28/37/22 27/36/22 30/39/22 31/40/22
f 27/36/23 29/38/23 32/41/23 30/39/23
f 31/40/24 30/39/24 18/23/24 15/22/24
f 30/39/25 32/41/25 34/26/25 18/23/25
f 29/38/23 45/42/23 33/43/23 32/41/23
f 32/41/25 33/43/25 35/44/25 34/26/25
f 34/26/15 35/44/15 37/45/15 17/27/15
f 35/44/15 36/46/15 38/47/15 37/45/15
f 33/43/25 47/48/25 36/46/25 35/44/25
f 37/49/16 38/50/16 40/51/16 39/52/16
f 17/28/16 37/49/16 39/52/16 20/29/16
f 39/52/18 40/51/18 42/53/18 41/54/18
f 20/29/18 39/52/18 41/54/18 23/32/18
f 41/54/20 42/53/20 44/55/20 43/56/20
f 23/32/20 41/54/20 43/56/20 26/35/20
f 43/56/21 44/55/21 46/57/21 45/42/21
f 26/35/21 43/56/21 45/42/21 29/38/21
f 45/42/23 46/57/23 47/48/23 33/43/23
f 46/57/26 44/55/26 49/55/26 48/57/26
f 47/48/27 46/57/27 48/57/27 50/48/27
f 48/57/28 49/55/28 52/55/28 51/57/28
f 50/48/29 48/57/29 51/57/29 53/48/29
f 51/57/28 52/55/28 55/55/28 54/57/28
f 53/48/29 51/57/29 54/57/29 56/48/29
f 67/58/30 58/6/30 57/59/30 56/60/30 54/61/30 55/62/30 68/63/30
f 59/46/31 53/48/31 56/48/31 57/46/31
f 60/47/32 59/46/32 57/46/32 58/47/32
f 61/46/31 50/48/31 53/48/31 59/46/31
f 62/47/32 61/46/32 59/46/32 60/47/32
f 36/46/33 47/48/33 50/48/33 61/46/33
f 38/47/34 36/46/34 61/46/34 62/47/34
f 63/51/35 62/50/35 60/50/35 65/51/35
f 40/51/36 38/50/36 62/50/36 63/51/36
f 42/53/37 40/51/37 63/51/37 64/53/37
f 64/53/38 63/51/38 65/51/38 66/53/38
f 65/51/35 60/50/35 58/50/35 67/51/35
f 66/53/38 65/51/38 67/51/38 68/53/38
f 52/55/39 66/53/39 68/53/39 55/55/39
f 49/55/39 64/53/39 66/53/39 52/55/39
f 44/55/40 42/53/40 64/53/40 49/55/40
usemtl Material.006
f 69/1/1 70/2/1 74/3/1 73/4/1 72/5/1
f 69/6/41 71/7/41 70/8/41
f 72/9/42 71/7/42 69/6/42
f 73/10/43 71/7/43 72/9/43
f 74/11/44 71/7/44 73/10/44
f 70/8/45 71/7/45 74/11/45
usemtl Material.007
f 75/1/1 76/2/1 80/3/1 79/4/1 78/5/1
f 75/6/46 77/7/46 76/8/46
f 78/9/47 77/7/47 75/6/47
f 79/10/48 77/7/48 78/9/48
f 80/11/49 77/7/49 79/10/49
f 76/8/50 77/7/50 80/11/50
