# Blender 5.1.0
# www.blender.org
mtllib deadtreeplain1noelle.mtl
o Cube.001
v 0.061175 0.425476 -0.105988
v 0.045313 -0.423764 -0.127762
v 0.104593 0.424227 0.035906
v 0.103893 -0.424851 0.089853
v -0.105914 0.432990 -0.052459
v -0.133278 -0.423619 -0.064422
v -0.063368 0.418307 0.104950
v -0.061175 -0.425476 0.104706
v 0.105347 0.822149 0.064943
v -0.061175 0.822149 0.101697
v 0.061175 0.822149 -0.073615
v -0.105347 0.822149 -0.036861
v -0.105347 0.623813 -0.049339
v 0.061175 0.623813 -0.089802
v 0.105347 0.623813 0.062739
v -0.061175 0.623813 0.103202
v 0.061175 0.524645 -0.097895
v -0.061175 0.524645 0.103954
v -0.102587 0.524301 -0.065178
v 0.105347 0.524645 0.061637
v -0.098856 0.537376 -0.103500
v -0.097941 0.636545 -0.097504
v 0.030429 0.636545 -0.127846
v 0.029242 0.537376 -0.135624
v -0.138607 0.598450 -0.280044
v -0.137692 0.697618 -0.274048
v -0.069251 0.697618 -0.288494
v -0.070439 0.598450 -0.296272
v -0.157445 0.678797 -0.356174
v -0.146673 0.730561 -0.318937
v -0.083755 0.733179 -0.349150
v -0.095208 0.681753 -0.387947
v -0.212578 0.755680 -0.432061
v -0.201806 0.807443 -0.394824
v -0.138888 0.810062 -0.425037
v -0.150340 0.758635 -0.463834
v -0.202925 0.825167 -0.448050
v -0.194608 0.839585 -0.418467
v -0.161211 0.844024 -0.432923
v -0.169837 0.830176 -0.463144
v 0.080324 1.043977 0.106019
v -0.086198 1.043977 0.142773
v 0.036153 1.043977 -0.032539
v -0.130370 1.043977 0.004215
v 0.033865 0.438668 0.100433
v -0.039822 0.438668 0.119979
v -0.039876 0.511353 0.119442
v 0.033944 0.511353 0.101220
v 0.016063 0.475733 0.228100
v -0.058778 0.475733 0.213586
v -0.049184 0.528538 0.164565
v 0.025267 0.529434 0.179983
v 0.014857 0.612762 0.336788
v -0.059983 0.612762 0.322274
v -0.050390 0.665567 0.273254
v 0.024061 0.666463 0.288671
v 0.013379 0.756408 0.483888
v -0.062856 0.756408 0.484052
v -0.062878 0.809213 0.434102
v 0.013148 0.810109 0.434899
v 0.028789 0.900164 0.648470
v -0.047446 0.900164 0.648634
v -0.047468 0.952969 0.598684
v 0.028559 0.953865 0.599481
v 0.020853 0.881987 0.517190
v 0.021084 0.828286 0.566179
v -0.055151 0.828286 0.566343
v -0.055173 0.881091 0.516393
v 0.024706 0.917926 0.558336
v -0.051320 0.917030 0.557538
v 0.024936 0.864225 0.607325
v -0.051298 0.864225 0.607489
v 0.013175 1.001899 0.652012
v -0.033788 1.001899 0.652113
v -0.033802 1.034428 0.621342
v 0.013033 1.034980 0.621833
v -0.061420 0.684585 0.403163
v -0.056634 0.737390 0.353678
v 0.018605 0.738286 0.361785
v 0.014118 0.684585 0.410338
v -0.062138 0.720497 0.443608
v 0.015877 0.774197 0.398342
v -0.059756 0.773302 0.393890
v 0.013748 0.720497 0.447113
v -0.002855 0.890286 0.383245
v -0.042741 0.901341 0.376231
v -0.009611 0.881212 0.334280
v -0.049574 0.894263 0.324398
v 0.015275 0.934426 0.352398
v -0.024611 0.945481 0.345384
v 0.008518 0.925353 0.303433
v -0.031445 0.938404 0.293551
v 0.009721 0.968767 0.313904
v -0.025190 0.978443 0.307765
v 0.003807 0.960826 0.271047
v -0.031171 0.972248 0.262398
v 0.006390 1.169660 0.120235
v -0.102360 1.169660 0.122887
v -0.005619 1.169297 0.017549
v -0.111780 1.170024 0.041274
v -0.042491 1.236203 0.110792
v -0.111021 1.236203 0.112463
v -0.049243 1.236203 0.052722
v -0.117773 1.236203 0.054394
v 0.026632 0.935895 0.578909
v -0.049394 0.935000 0.578111
v 0.026863 0.882195 0.627898
v -0.049372 0.882195 0.628062
v 0.002573 0.919304 0.560342
v 0.003349 0.938259 0.573385
v -0.028046 0.918359 0.559836
v -0.027270 0.937315 0.572880
v 0.002328 0.929044 0.527910
v 0.003104 0.948000 0.540953
v -0.028291 0.928099 0.527404
v -0.027515 0.947055 0.540447
v -0.008734 0.954164 0.495008
v -0.007958 0.973119 0.508051
v -0.039353 0.953219 0.494502
v -0.038577 0.972174 0.507546
v -0.008902 0.978654 0.459428
v -0.008126 0.997609 0.472471
v -0.039521 0.977709 0.458922
v -0.038745 0.996664 0.471965
v 0.077038 -0.001713 -0.084214
v -0.061175 0.000000 0.104706
v 0.107556 0.000624 0.082011
v -0.077416 -0.001858 -0.059210
v 0.048664 0.908137 -0.049459
v 0.092836 0.947538 0.083380
v -0.073687 0.957990 0.118617
v -0.117859 0.918588 -0.014222
v -0.086865 1.012285 -0.007761
v -0.000807 1.012285 -0.026756
v 0.005659 0.942083 -0.035500
v -0.080399 0.947485 -0.017289
v -0.072712 1.008618 -0.074472
v -0.028192 1.020384 -0.089432
v -0.019361 0.985704 -0.105005
v -0.064416 0.976860 -0.089640
v -0.114488 1.058315 -0.135439
v -0.076004 1.068135 -0.145177
v -0.067173 1.033455 -0.160750
v -0.118265 1.022666 -0.140164
v -0.114154 1.081335 -0.168902
v -0.093071 1.079639 -0.173368
v -0.095150 1.064032 -0.186701
v -0.122950 1.066190 -0.176558
v -0.208351 0.895969 -0.467447
v -0.205883 0.900246 -0.458671
v -0.195976 0.901563 -0.462959
v -0.198535 0.897455 -0.471925
v -0.110588 0.775061 -0.267121
v -0.076111 0.772990 -0.274096
v -0.115112 0.784533 -0.293521
v -0.083418 0.781465 -0.308486
v -0.110483 0.834188 -0.283362
v -0.076830 0.830734 -0.293218
v -0.116450 0.845699 -0.308642
v -0.086240 0.841957 -0.326284
v -0.088606 0.884182 -0.283309
v -0.081023 0.883404 -0.285530
v -0.089951 0.886776 -0.289005
v -0.083144 0.885933 -0.292980
v -0.063271 1.286338 0.095224
v -0.093969 1.286338 0.095973
v -0.066296 1.286338 0.069213
v -0.096993 1.286338 0.069961
v 0.010949 1.004671 0.293166
v -0.005264 1.009164 0.290315
v 0.008202 1.000983 0.273262
v -0.008042 1.006287 0.269245
vn -0.2253 0.0702 -0.9718
vn 0.2615 0.0541 0.9637
vn -0.9833 -0.0368 0.1784
vn -0.0003 -1.0000 -0.0075
vn 0.9724 0.0029 -0.2333
vn -0.2378 -0.0292 -0.9709
vn 0.9324 0.1560 -0.3261
vn 0.2259 -0.0017 0.9742
vn -0.9569 -0.0080 0.2904
vn 0.9568 0.0135 -0.2904
vn 0.9621 0.0126 -0.2724
vn -0.9658 -0.0329 0.2570
vn 0.2412 -0.0017 0.9705
vn -0.9920 0.0047 -0.1263
vn -0.2526 -0.0191 -0.9674
vn 0.1325 0.8401 0.5261
vn -0.9671 0.0444 0.2506
vn 0.9594 0.0436 -0.2786
vn 0.8545 0.0304 -0.5186
vn 0.0640 0.9616 0.2667
vn -0.0653 -0.9521 -0.2989
vn 0.7772 0.0456 -0.6276
vn 0.9677 -0.0033 -0.2520
vn -0.9759 -0.0042 0.2183
vn -0.0767 -0.9472 -0.3114
vn 0.0713 0.9469 0.3135
vn -0.2627 -0.7667 -0.5859
vn -0.9727 0.0089 0.2319
vn -0.2229 -0.7262 -0.6503
vn 0.1980 -0.1612 0.9669
vn 0.8121 0.2873 -0.5079
vn 0.2524 0.7654 0.5920
vn 0.8687 0.1602 -0.4688
vn -0.8681 -0.1579 0.4707
vn 0.8636 0.3172 -0.3918
vn -0.9770 0.1954 0.0856
vn -0.4291 -0.1270 -0.8943
vn 0.3436 0.4672 0.8147
vn 0.8685 0.4523 -0.2029
vn -0.9283 -0.1759 0.3277
vn 0.1997 -0.2177 0.9554
vn -0.1770 0.1259 -0.9761
vn 0.9908 -0.0229 0.1332
vn 0.5856 -0.1255 0.8008
vn -0.5640 0.0138 0.8256
vn 0.2004 -0.8484 0.4900
vn 0.1528 0.6150 -0.7736
vn 0.0108 -0.9476 0.3193
vn -0.0110 0.9613 -0.2753
vn -0.9802 -0.0038 -0.1982
vn -0.9993 -0.0123 -0.0367
vn -0.9909 0.0782 -0.1096
vn 0.9915 -0.0752 0.1058
vn -0.1501 -0.6152 0.7740
vn 0.9975 -0.0450 -0.0541
vn 0.9994 0.0110 0.0315
vn -0.0150 -0.7323 0.6809
vn -0.0098 0.5366 0.8438
vn -0.0081 0.8474 -0.5309
vn 0.0014 -0.7532 0.6578
vn -0.9975 0.0482 0.0513
vn -0.0020 0.7532 -0.6577
vn -0.0071 0.6806 0.7326
vn -0.9826 0.1273 0.1350
vn 0.9774 0.1447 0.1540
vn 0.0021 -0.0345 0.9994
vn 0.0975 0.7305 -0.6760
vn -0.0977 -0.7294 0.6771
vn 0.9950 -0.0473 0.0884
vn -0.9945 0.0498 -0.0917
vn 0.0480 0.7312 -0.6805
vn -0.0480 -0.7317 0.6799
vn 0.9985 -0.0123 0.0543
vn -0.9982 0.0126 -0.0587
vn -0.9070 0.4164 0.0627
vn 0.0542 -0.5020 -0.8632
vn -0.9914 0.1290 -0.0203
vn 0.9823 0.1427 -0.1213
vn -0.9869 0.1135 0.1146
vn 0.0132 0.5691 0.8221
vn 0.0137 -0.5765 -0.8169
vn 0.9111 -0.4091 -0.0499
vn -0.8298 0.5571 0.0333
vn 0.0925 0.7496 0.6554
vn -0.0391 -0.6766 -0.7353
vn 0.9905 0.0058 -0.1377
vn -0.9872 -0.1113 0.1140
vn -0.9716 -0.0068 0.2365
vn 0.1413 0.0729 0.9873
vn -0.2055 0.3036 -0.9304
vn -0.9298 0.3518 0.1081
vn 0.0241 0.1578 0.9872
vn -0.1364 0.2926 -0.9465
vn 0.8093 0.5795 -0.0958
vn 0.0046 0.4203 -0.9074
vn -0.9994 0.0296 0.0164
vn 0.1120 0.6645 -0.7389
vn -0.0207 0.9160 0.4007
vn -0.1014 0.6738 -0.7319
vn -0.0345 0.7887 0.6138
vn 0.9994 -0.0296 -0.0164
vn -0.0343 0.9571 0.2877
vn 0.0343 -0.9571 -0.2877
vn -0.9994 0.0256 0.0223
vn 0.0345 -0.7887 -0.6138
vn -0.9651 -0.1205 0.2325
vn 0.9651 0.1205 -0.2325
vn -0.0039 0.5670 -0.8237
vn 0.9994 -0.0256 -0.0223
vn -0.0348 0.8232 0.5667
vn 0.0348 -0.8232 -0.5667
vn -0.2555 0.0822 -0.9633
vn 0.9737 -0.0311 -0.2259
vn -0.9647 0.0620 0.2559
vn 0.1117 0.0087 0.9937
vn -0.1997 0.2177 -0.9554
vn 0.2066 -0.1118 0.9720
vn -0.9324 -0.1560 0.3261
vn 0.9283 0.1759 -0.3277
vn -0.9697 -0.0902 -0.2268
vn -0.2150 0.0729 -0.9739
vn -0.1956 0.1507 -0.9690
vn -0.2359 0.0987 -0.9668
vn -0.0720 -0.7818 -0.6194
vn -0.0788 0.9960 0.0422
vn -0.0922 -0.8878 -0.4510
vn 0.9348 0.2038 -0.2909
vn 0.8356 0.3537 -0.4202
vn 0.8372 0.3868 -0.3867
vn -0.8238 -0.2105 0.5263
vn -0.0072 0.7649 0.6442
vn -0.1859 0.5979 -0.7797
vn -0.9560 0.1803 0.2313
vn -0.0023 0.8722 0.4891
vn -0.1999 -0.6809 -0.7046
vn -0.2803 0.8961 -0.3441
vn -0.9627 0.0003 0.2705
vn -0.3650 -0.2719 -0.8904
vn 0.2628 0.5665 0.7811
vn -0.9751 0.0465 0.2168
vn 0.9781 0.1256 -0.1662
vn -0.3479 0.5830 -0.7343
vn -0.8842 0.3083 0.3509
vn -0.8511 0.3721 0.3703
vn -0.4728 -0.2452 -0.8464
vn 0.9659 -0.0504 -0.2541
vn 0.2516 0.2815 0.9260
vn 0.2331 0.9253 0.2991
vn -0.3561 0.5800 -0.7327
vn 0.9651 0.1114 -0.2368
vn 0.2679 -0.1182 0.9562
vn -0.0000 1.0000 -0.0000
vn 0.0232 0.3052 0.9520
vn -0.0232 0.3052 -0.9520
vn 0.9298 0.3518 -0.1081
vn 0.3206 0.9276 -0.1919
vn -0.0135 0.5005 0.8656
vn 0.2480 0.0263 -0.9684
vn 0.9879 -0.1016 -0.1175
vt 0.625000 0.500000
vt 0.625000 0.250000
vt 0.625000 0.250000
vt 0.625000 0.500000
vt 0.500000 0.750000
vt 0.625000 0.750000
vt 0.625000 1.000000
vt 0.500000 1.000000
vt 0.500000 0.000000
vt 0.625000 0.000000
vt 0.500000 0.250000
vt 0.125000 0.500000
vt 0.375000 0.500000
vt 0.375000 0.750000
vt 0.125000 0.750000
vt 0.500000 0.500000
vt 0.625000 0.500000
vt 0.625000 0.750000
vt 0.625000 0.250000
vt 0.625000 0.000000
vt 0.625000 0.000000
vt 0.625000 0.750000
vt 0.625000 0.750000
vt 0.625000 1.000000
vt 0.625000 0.750000
vt 0.375000 0.250000
vt 0.375000 0.000000
vt 0.375000 1.000000
vt 0.875000 0.500000
vt 0.875000 0.750000
s 0
usemtl Material.001
f 14/1/1 13/2/1 12/3/1 11/4/1
f 127/5/2 3/6/2 7/7/2 126/8/2
f 126/9/3 7/10/3 5/3/3 128/11/3
f 6/12/4 2/13/4 4/14/4 8/15/4
f 125/16/5 1/4/5 3/6/5 127/5/5
f 128/11/6 5/3/6 1/4/6 125/16/6
f 130/6/7 129/17/7 43/4/7 41/6/7
f 16/7/8 15/6/8 9/6/8 10/7/8
f 13/2/9 16/10/9 10/10/9 12/3/9
f 15/6/10 14/1/10 11/4/10 9/6/10
f 20/18/11 17/17/11 14/1/11 15/6/11
f 19/19/12 18/10/12 16/10/12 13/2/12
f 18/7/13 20/18/13 15/6/13 16/7/13
f 19/19/14 13/2/14 22/2/14 21/19/14
f 1/4/15 5/3/15 19/19/15 17/17/15
f 20/18/16 18/7/16 47/7/16 48/18/16
f 5/3/17 7/10/17 18/10/17 19/19/17
f 3/6/18 1/4/18 17/17/18 20/18/18
f 23/1/19 24/17/19 28/17/19 27/1/19
f 13/2/20 14/1/20 23/1/20 22/2/20
f 17/17/21 19/19/21 21/19/21 24/17/21
f 14/1/22 17/17/22 24/17/22 23/1/22
f 27/1/23 28/17/23 32/17/23 31/1/23
f 21/19/24 22/2/24 26/2/24 25/19/24
f 24/17/25 21/19/25 25/19/25 28/17/25
f 22/2/26 23/1/26 27/1/26 26/2/26
f 32/17/27 29/19/27 33/19/27 36/17/27
f 25/19/28 26/2/28 30/2/28 29/19/28
f 28/17/29 25/19/29 29/19/29 32/17/29
f 26/2/30 27/1/30 154/1/30 153/2/30
f 35/1/31 36/17/31 40/17/31 39/1/31
f 30/2/32 31/1/32 35/1/32 34/2/32
f 31/1/33 32/17/33 36/17/33 35/1/33
f 29/19/34 30/2/34 34/2/34 33/19/34
f 39/1/35 40/17/35 152/17/35 151/1/35
f 33/19/36 34/2/36 38/2/36 37/19/36
f 36/17/37 33/19/37 37/19/37 40/17/37
f 34/2/38 35/1/38 39/1/38 38/2/38
f 41/6/39 43/4/39 99/4/39 97/6/39
f 132/19/40 131/20/40 42/10/40 44/3/40
f 131/7/41 130/6/41 41/6/41 42/7/41
f 132/19/42 44/3/42 133/3/42 136/19/42
f 45/6/43 48/18/43 52/18/43 49/6/43
f 3/6/44 20/18/44 48/18/44 45/6/44
f 18/10/45 7/10/45 46/10/45 47/10/45
f 7/7/46 3/6/46 45/6/46 46/7/46
f 52/18/47 51/7/47 55/7/47 56/18/47
f 46/7/48 45/6/48 49/6/48 50/7/48
f 48/18/49 47/7/49 51/7/49 52/18/49
f 47/10/50 46/10/50 50/10/50 51/10/50
f 83/21/51 81/10/51 58/10/51 59/10/51
f 51/10/52 50/10/52 54/10/52 55/10/52
f 49/6/53 52/18/53 56/18/53 53/6/53
f 50/7/54 49/6/54 53/6/54 54/7/54
f 107/6/55 105/22/55 64/18/55 61/6/55
f 84/23/56 82/18/56 60/18/56 57/6/56
f 81/24/57 84/23/57 57/6/57 58/7/57
f 59/7/58 60/18/58 85/18/58 86/7/58
f 69/25/59 70/7/59 111/7/59 109/25/59
f 108/7/60 107/6/60 61/6/60 62/7/60
f 70/21/61 72/10/61 108/10/61 106/10/61
f 106/10/61 108/10/61 62/10/61 63/10/61
f 59/10/61 58/10/61 67/10/61 68/10/61
f 60/18/62 59/7/62 68/7/62 65/25/62
f 58/7/60 57/6/60 66/23/60 67/7/60
f 57/6/55 60/18/55 65/25/55 66/23/55
f 68/10/61 67/10/61 72/10/61 70/21/61
f 65/25/62 68/7/62 70/7/62 69/25/62
f 66/23/55 65/25/55 69/25/55 71/18/55
f 71/18/60 72/7/60 67/7/60 66/23/60
f 74/7/63 73/6/63 76/18/63 75/7/63
f 63/10/64 62/10/64 74/10/64 75/10/64
f 61/6/65 64/18/65 76/18/65 73/6/65
f 62/7/66 61/6/66 73/6/66 74/7/66
f 56/18/67 55/7/67 78/24/67 79/22/67
f 54/7/68 53/6/68 80/6/68 77/7/68
f 53/6/69 56/18/69 79/22/69 80/6/69
f 55/10/70 54/10/70 77/10/70 78/10/70
f 79/22/71 78/24/71 83/24/71 82/18/71
f 77/7/72 80/6/72 84/23/72 81/24/72
f 80/6/73 79/22/73 82/18/73 84/23/73
f 78/10/74 77/10/74 81/10/74 83/21/74
f 88/21/75 86/10/75 90/10/75 92/21/75
f 82/18/76 83/24/76 88/24/76 87/18/76
f 83/21/77 59/10/77 86/10/77 88/21/77
f 60/18/78 82/18/78 87/18/78 85/18/78
f 92/21/79 90/10/79 94/10/79 96/21/79
f 86/7/80 85/18/80 89/18/80 90/7/80
f 87/18/81 88/24/81 92/24/81 91/18/81
f 85/18/82 87/18/82 91/18/82 89/18/82
f 96/21/83 94/10/83 170/10/83 172/21/83
f 90/7/84 89/18/84 93/18/84 94/7/84
f 91/18/85 92/24/85 96/24/85 95/18/85
f 89/18/86 91/18/86 95/18/86 93/18/86
f 100/3/87 98/10/87 102/10/87 104/3/87
f 44/3/88 42/10/88 98/10/88 100/3/88
f 42/7/89 41/6/89 97/6/89 98/7/89
f 43/4/90 44/3/90 100/3/90 99/4/90
f 104/3/91 102/10/91 166/10/91 168/3/91
f 98/7/92 97/6/92 101/6/92 102/7/92
f 99/4/93 100/3/93 104/3/93 103/4/93
f 97/6/94 99/4/94 103/4/94 101/6/94
f 105/22/95 106/24/95 63/7/95 75/7/95 76/18/95 64/18/95
f 72/7/60 71/18/60 107/6/60 108/7/60
f 71/18/55 69/25/55 105/22/55 107/6/55
f 111/21/96 112/10/96 116/10/96 115/21/96
f 105/22/97 69/25/97 109/25/97 110/22/97
f 106/24/98 105/22/98 110/22/98 112/24/98
f 70/21/99 106/10/99 112/10/99 111/21/99
f 116/24/100 114/22/100 118/22/100 120/24/100
f 110/22/101 109/25/101 113/25/101 114/22/101
f 112/24/102 110/22/102 114/22/102 116/24/102
f 109/25/103 111/7/103 115/7/103 113/25/103
f 119/21/104 120/10/104 124/10/104 123/21/104
f 113/25/105 115/7/105 119/7/105 117/25/105
f 115/21/106 116/10/106 120/10/106 119/21/106
f 114/22/107 113/25/107 117/25/107 118/22/107
f 121/25/108 123/7/108 124/24/108 122/22/108
f 118/22/109 117/25/109 121/25/109 122/22/109
f 120/24/110 118/22/110 122/22/110 124/24/110
f 117/25/111 119/7/111 123/7/111 121/25/111
f 6/26/112 128/11/112 125/16/112 2/13/112
f 2/13/113 125/16/113 127/5/113 4/14/113
f 8/27/114 126/9/114 128/11/114 6/26/114
f 4/14/115 127/5/115 126/8/115 8/28/115
f 11/4/116 12/3/116 132/19/116 129/17/116
f 10/7/117 9/6/117 130/6/117 131/7/117
f 12/3/118 10/10/118 131/20/118 132/19/118
f 9/6/119 11/4/119 129/17/119 130/6/119
f 136/19/120 133/3/120 137/3/120 140/19/120
f 44/3/121 43/4/121 134/4/121 133/3/121
f 129/17/122 132/19/122 136/19/122 135/17/122
f 43/4/123 129/17/123 135/17/123 134/4/123
f 139/17/124 140/19/124 144/19/124 143/17/124
f 133/3/125 134/4/125 138/4/125 137/3/125
f 135/17/126 136/19/126 140/19/126 139/17/126
f 134/4/127 135/17/127 139/17/127 138/4/127
f 142/4/128 143/17/128 147/17/128 146/4/128
f 138/4/129 139/17/129 143/17/129 142/4/129
f 140/19/130 137/3/130 141/3/130 144/19/130
f 137/3/131 138/4/131 142/4/131 141/3/131
f 147/17/132 148/19/132 145/3/132 146/4/132
f 144/19/133 141/3/133 145/3/133 148/19/133
f 141/3/134 142/4/134 146/4/134 145/3/134
f 143/17/135 144/19/135 148/19/135 147/17/135
f 152/17/136 149/19/136 150/2/136 151/1/136
f 37/19/137 38/2/137 150/2/137 149/19/137
f 40/17/138 37/19/138 149/19/138 152/17/138
f 38/2/139 39/1/139 151/1/139 150/2/139
f 155/2/140 153/2/140 157/2/140 159/2/140
f 27/1/141 31/1/141 156/1/141 154/1/141
f 31/1/142 30/2/142 155/2/142 156/1/142
f 30/2/143 26/2/143 153/2/143 155/2/143
f 159/2/144 157/2/144 161/2/144 163/2/144
f 156/1/145 155/2/145 159/2/145 160/1/145
f 154/1/146 156/1/146 160/1/146 158/1/146
f 153/2/147 154/1/147 158/1/147 157/2/147
f 161/2/148 162/1/148 164/1/148 163/2/148
f 160/1/149 159/2/149 163/2/149 164/1/149
f 158/1/150 160/1/150 164/1/150 162/1/150
f 157/2/151 158/1/151 162/1/151 161/2/151
f 167/4/152 168/29/152 166/30/152 165/6/152
f 102/7/153 101/6/153 165/6/153 166/7/153
f 103/4/154 104/3/154 168/3/154 167/4/154
f 101/6/155 103/4/155 167/4/155 165/6/155
f 171/18/156 172/24/156 170/7/156 169/18/156
f 94/7/157 93/18/157 169/18/157 170/7/157
f 95/18/158 96/24/158 172/24/158 171/18/158
f 93/18/159 95/18/159 171/18/159 169/18/159
