# Blender 5.1.0
# www.blender.org
mtllib livingtreeplain2noelle.mtl
o Cube.005
v 0.030596 1.602880 -4.308474
v -0.099204 1.313049 -3.930339
v 0.370423 1.456878 -3.981309
v 0.370424 1.922310 -4.146246
v -0.389457 1.689594 -4.063778
v -0.099204 2.066140 -4.197216
v -0.309232 2.062618 -3.750317
v 0.160396 2.206447 -3.801286
v 0.450649 1.829902 -3.667848
v 0.030596 1.916616 -3.423151
v 0.160396 1.453356 -3.534410
v -0.309232 1.597186 -3.585379
v -0.061176 0.672904 -3.952070
v -0.045313 -0.414858 -3.930296
v -0.104593 0.671304 -4.093964
v -0.103893 -0.416251 -4.147911
v 0.105914 0.682528 -4.005599
v 0.133278 -0.414672 -3.993635
v 0.063368 0.663721 -4.163008
v 0.061175 -0.417052 -4.162764
v -0.105347 1.180272 -4.111317
v 0.061175 1.180989 -4.159755
v -0.061176 1.180989 -3.984442
v 0.105347 1.180989 -4.021196
v 0.105347 0.926947 -4.008719
v -0.061176 0.926947 -3.968256
v -0.105347 0.927664 -4.132481
v 0.061175 0.926947 -4.161260
v -0.061176 0.799925 -3.960163
v 0.061175 0.799925 -4.162012
v 0.102587 0.799485 -3.992879
v -0.105347 0.799925 -4.119695
v 0.098856 0.816233 -3.954558
v 0.097941 0.943254 -3.960554
v -0.030430 0.943254 -3.930211
v -0.029242 0.816233 -3.922433
v 0.138607 0.894460 -3.778013
v 0.137692 1.021482 -3.784009
v 0.069251 1.021482 -3.769564
v 0.070439 0.894460 -3.761786
v 0.157445 0.997374 -3.701884
v 0.146673 1.063676 -3.739121
v 0.083755 1.067030 -3.708908
v 0.095207 1.001160 -3.670111
v 0.212578 1.095850 -3.625997
v 0.201806 1.162153 -3.663234
v 0.138888 1.165506 -3.633021
v 0.150340 1.099636 -3.594224
v 0.202925 1.184854 -3.610008
v 0.194608 1.203322 -3.639590
v 0.161211 1.209007 -3.625135
v 0.169837 1.191270 -3.594914
v -0.080324 1.465120 -4.164077
v 0.086198 1.465120 -4.200831
v -0.036153 1.460506 -4.037741
v 0.130370 1.465120 -4.062273
v -0.033865 0.689801 -4.158491
v 0.039822 0.689801 -4.178037
v 0.039876 0.782900 -4.177500
v -0.033944 0.782900 -4.159278
v -0.016063 0.737276 -4.286158
v 0.058778 0.737276 -4.271644
v 0.049184 0.804912 -4.222623
v -0.025267 0.806060 -4.238041
v -0.014857 0.912792 -4.394846
v 0.059983 0.912792 -4.380332
v 0.050389 0.980428 -4.331312
v -0.024062 0.981575 -4.346729
v -0.013379 1.096783 -4.541946
v 0.062856 1.096783 -4.542110
v 0.062878 1.164419 -4.492159
v -0.013148 1.165567 -4.492957
v -0.028789 1.280916 -4.706528
v 0.047446 1.280916 -4.706692
v 0.047468 1.348552 -4.656742
v -0.028559 1.349699 -4.657539
v -0.020854 1.257633 -4.575248
v -0.021084 1.188849 -4.624237
v 0.055151 1.188849 -4.624401
v 0.055173 1.256485 -4.574450
v -0.024706 1.303666 -4.616394
v 0.051320 1.302518 -4.615596
v -0.024937 1.234882 -4.665383
v 0.051298 1.234882 -4.665546
v -0.013175 1.411223 -4.710070
v 0.033788 1.411223 -4.710171
v 0.033802 1.452890 -4.679399
v -0.013033 1.453597 -4.679891
v 0.061420 1.004788 -4.461221
v 0.056634 1.072424 -4.411736
v -0.018605 1.073571 -4.419843
v -0.014118 1.004788 -4.468396
v 0.062138 1.050786 -4.501666
v -0.015877 1.119569 -4.456400
v 0.059756 1.118422 -4.451947
v -0.013748 1.050786 -4.505171
v 0.002855 1.268262 -4.441303
v 0.042740 1.282423 -4.434289
v 0.009611 1.256641 -4.392338
v 0.049574 1.273357 -4.382456
v -0.015275 1.324801 -4.410456
v 0.024611 1.338961 -4.403442
v -0.008518 1.313179 -4.361491
v 0.031445 1.329895 -4.351609
v -0.009721 1.368786 -4.371962
v 0.025190 1.381180 -4.365823
v -0.003807 1.358614 -4.329104
v 0.031171 1.373246 -4.320456
v -0.006390 1.626104 -4.178293
v 0.102360 1.626104 -4.180944
v 0.005619 1.639749 -4.065701
v 0.111780 1.617072 -4.097016
v 0.042491 1.711336 -4.168849
v 0.111021 1.711336 -4.170520
v 0.049243 1.711336 -4.110780
v 0.117773 1.711336 -4.112452
v -0.026632 1.326682 -4.636966
v 0.049394 1.325535 -4.636168
v -0.026863 1.257899 -4.685956
v 0.049372 1.257899 -4.686119
v -0.002573 1.305431 -4.618400
v -0.003349 1.329710 -4.631443
v 0.028046 1.304221 -4.617894
v 0.027270 1.328500 -4.630938
v -0.002328 1.317907 -4.585967
v -0.003104 1.342186 -4.599010
v 0.028291 1.316697 -4.585462
v 0.027515 1.340976 -4.598505
v 0.008734 1.350082 -4.553066
v 0.007958 1.374361 -4.566109
v 0.039353 1.348872 -4.552560
v 0.038577 1.373151 -4.565603
v 0.008902 1.381450 -4.517486
v 0.008126 1.405729 -4.530529
v 0.039521 1.380240 -4.516980
v 0.038745 1.404519 -4.530023
v -0.077038 0.125733 -3.973844
v 0.061175 0.127926 -4.162764
v -0.107556 0.128725 -4.140069
v 0.077416 0.125547 -3.998847
v -0.048664 1.291127 -4.008599
v -0.092836 1.341595 -4.141438
v 0.073687 1.354982 -4.176674
v 0.117858 1.304514 -4.043836
v 0.086865 1.424527 -4.050296
v 0.000807 1.424527 -4.031302
v -0.005659 1.334608 -4.022558
v 0.080399 1.341527 -4.040769
v 0.072712 1.419831 -3.983586
v 0.028192 1.434901 -3.968625
v 0.019361 1.390480 -3.953053
v 0.064416 1.379153 -3.968417
v 0.114487 1.483485 -3.922619
v 0.076004 1.496063 -3.912880
v 0.067173 1.451643 -3.897308
v 0.118264 1.437824 -3.917894
v 0.114154 1.512970 -3.889156
v 0.093071 1.510799 -3.884689
v 0.095150 1.490808 -3.871357
v 0.122950 1.493572 -3.881500
v 0.208350 1.275542 -3.590611
v 0.205883 1.281021 -3.599387
v 0.195976 1.282707 -3.595099
v 0.198535 1.277446 -3.586133
v 0.110588 1.120675 -3.790937
v 0.076111 1.118022 -3.783961
v 0.115112 1.132807 -3.764537
v 0.083418 1.128878 -3.749571
v 0.110483 1.196409 -3.774695
v 0.076830 1.191985 -3.764840
v 0.116450 1.211153 -3.749416
v 0.086240 1.206360 -3.731774
v 0.088606 1.260445 -3.774749
v 0.081023 1.259448 -3.772528
v 0.089951 1.263767 -3.769053
v 0.083143 1.262687 -3.765077
v 0.063271 1.775552 -4.153282
v 0.093968 1.775552 -4.154030
v 0.066296 1.775552 -4.127271
v 0.096993 1.775552 -4.128019
v -0.010949 1.414774 -4.351223
v 0.005264 1.420530 -4.348372
v -0.008202 1.410050 -4.331320
v 0.008042 1.416845 -4.327303
v 0.030596 0.904579 -4.603975
v -0.099204 1.164186 -4.204485
v 0.370423 1.164186 -4.357079
v 0.370423 1.164186 -4.850872
v -0.389457 1.164186 -4.603975
v -0.099204 1.164186 -5.003465
v -0.309232 1.584241 -4.850872
v 0.160396 1.584241 -5.003465
v 0.450649 1.584241 -4.603975
v 0.030596 1.843848 -4.603975
v 0.160396 1.584241 -4.204485
v -0.309232 1.584241 -4.357079
v -0.000473 1.269971 -4.007844
v -0.220408 0.853133 -3.860501
v 0.272127 0.876353 -3.887053
v 0.411674 1.327250 -3.741968
v -0.385269 1.289686 -3.699003
v 0.005386 1.582705 -3.625746
v -0.210935 1.359146 -3.242250
v 0.281600 1.382366 -3.268802
v 0.446461 0.945813 -3.430301
v 0.061664 0.965528 -3.121459
v 0.055805 0.652794 -3.503557
v -0.350483 0.908249 -3.387336
vn -0.4911 -0.6018 -0.6298
vn 0.1876 -0.8096 -0.5562
vn 0.6071 -0.2654 -0.7490
vn 0.1876 0.2788 -0.9419
vn -0.4911 0.0709 -0.8682
vn -0.7946 0.4815 -0.3697
vn 0.3035 0.8179 -0.4888
vn -0.3035 0.9432 -0.1352
vn 0.7946 0.6069 -0.0160
vn -0.1876 0.8096 0.5562
vn 0.4911 0.6018 0.6298
vn -0.1876 -0.2788 0.9419
vn 0.4911 -0.0709 0.8682
vn -0.6071 0.2654 0.7490
vn -0.9822 0.0627 0.1768
vn -0.7946 -0.6069 0.0160
vn -0.3035 -0.8179 0.4888
vn 0.3035 -0.9432 0.1352
vn 0.7946 -0.4815 0.3697
vn 0.9822 -0.0627 -0.1768
vn 0.2255 0.0549 0.9727
vn -0.2617 0.0423 -0.9642
vn 0.9835 -0.0288 -0.1785
vn 0.0004 -1.0000 0.0096
vn -0.9724 0.0023 0.2333
vn 0.2378 -0.0228 0.9710
vn -0.9276 0.1404 0.3460
vn -0.2256 0.0435 -0.9732
vn 0.9569 -0.0063 -0.2904
vn -0.9569 -0.0029 0.2904
vn -0.9645 0.0216 0.2632
vn 0.9661 -0.0257 -0.2571
vn -0.2086 -0.0461 -0.9769
vn 0.9920 0.0037 0.1263
vn 0.2526 -0.0149 0.9675
vn -0.1557 0.7706 -0.6181
vn 0.9674 0.0347 -0.2507
vn -0.9598 0.0340 0.2787
vn -0.8546 0.0238 0.5187
vn -0.0801 0.9393 -0.3337
vn 0.0812 -0.9247 0.3718
vn -0.7775 0.0356 0.6278
vn -0.9677 -0.0026 0.2520
vn 0.9759 -0.0033 -0.2183
vn 0.0952 -0.9174 0.3863
vn -0.0885 0.9170 -0.3889
vn 0.2993 -0.6819 0.6674
vn 0.9727 0.0069 -0.2319
vn 0.2502 -0.6363 0.7298
vn -0.1990 -0.1265 -0.9718
vn -0.8255 0.2280 0.5163
vn -0.2874 0.6804 -0.6741
vn -0.8730 0.1257 0.4711
vn 0.8723 -0.1239 -0.4730
vn -0.8811 0.2527 0.3998
vn 0.9843 0.1537 -0.0862
vn 0.4304 -0.0994 0.8971
vn -0.3592 0.3814 -0.8518
vn -0.9190 0.3377 0.2033
vn 0.9339 -0.1382 -0.3297
vn -0.2016 -0.1715 -0.9643
vn 0.1776 0.0986 0.9792
vn -0.9909 -0.0179 -0.1332
vn -0.5874 -0.0983 -0.8033
vn 0.5640 0.0108 -0.8257
vn -0.2364 -0.7812 -0.5779
vn -0.1655 0.5200 0.8380
vn -0.0134 -0.9181 -0.3962
vn 0.0138 0.9388 0.3443
vn 0.9802 -0.0029 0.1982
vn 0.9993 -0.0096 0.0367
vn 0.9921 0.0612 0.1098
vn -0.9926 -0.0588 -0.1059
vn 0.1626 -0.5203 -0.8384
vn -0.9979 -0.0352 0.0541
vn -0.9995 0.0086 -0.0315
vn 0.0168 -0.6429 -0.7657
vn 0.0104 0.4447 -0.8956
vn 0.0096 0.7799 0.6258
vn -0.0016 -0.6665 -0.7455
vn 0.9980 0.0376 -0.0514
vn 0.0022 0.6665 0.7455
vn 0.0078 0.5871 -0.8095
vn 0.9858 0.0997 -0.1354
vn -0.9814 0.1134 -0.1546
vn -0.0021 -0.0269 -0.9996
vn -0.1096 0.6409 0.7597
vn 0.1097 -0.6398 -0.7607
vn -0.9954 -0.0369 -0.0884
vn 0.9950 0.0389 0.0918
vn -0.0539 0.6418 0.7650
vn 0.0539 -0.6424 -0.7645
vn -0.9985 -0.0096 -0.0543
vn 0.9982 0.0098 0.0587
vn 0.9394 0.3367 -0.0650
vn -0.0571 -0.4128 0.9090
vn 0.9947 0.1010 0.0203
vn -0.9862 0.1119 0.1218
vn 0.9894 0.0888 -0.1149
vn -0.0141 0.4754 -0.8797
vn -0.0147 -0.4825 0.8758
vn -0.9424 -0.3304 0.0516
vn 0.8851 0.4640 -0.0355
vn -0.1047 0.6624 -0.7418
vn 0.0432 -0.5829 0.8114
vn -0.9905 0.0045 0.1377
vn 0.9894 -0.0841 -0.1180
vn 0.9722 -0.0036 -0.2343
vn -0.1415 0.0570 -0.9883
vn 0.2085 0.1678 0.9635
vn 0.9531 0.2816 -0.1108
vn -0.0242 0.1238 -0.9920
vn 0.2130 0.2781 0.9367
vn -0.8548 0.5162 0.0527
vn -0.0047 0.3401 0.9404
vn 0.9996 0.0231 -0.0164
vn -0.1231 0.5703 0.8122
vn 0.0252 0.8721 -0.4887
vn 0.1118 0.5799 0.8070
vn 0.0396 0.7077 -0.7054
vn -0.9996 -0.0231 0.0164
vn 0.0428 0.9324 -0.3590
vn -0.0428 -0.9324 0.3590
vn 0.9996 0.0200 -0.0223
vn -0.0396 -0.7077 0.7054
vn 0.9679 -0.0943 -0.2332
vn -0.9679 0.0943 0.2332
vn 0.0042 0.4734 0.8809
vn -0.9996 -0.0200 0.0223
vn 0.0405 0.7494 -0.6609
vn -0.0405 -0.7494 0.6609
vn 0.2559 0.0643 0.9646
vn -0.9738 -0.0243 0.2259
vn 0.9654 0.0485 -0.2561
vn -0.1117 0.0068 -0.9937
vn 0.2016 0.1715 0.9643
vn -0.2373 -0.1176 -0.9643
vn 0.9368 -0.1224 -0.3277
vn -0.9260 0.1542 0.3445
vn 0.9713 -0.0706 0.2272
vn 0.1619 0.2176 0.9625
vn 0.1965 0.1182 0.9734
vn 0.0799 0.1384 0.9872
vn 0.0825 -0.6995 0.7099
vn 0.1006 0.9935 -0.0539
vn 0.1108 -0.8330 0.5420
vn -0.9425 0.1604 0.2933
vn -0.8568 0.2832 0.4309
vn -0.8627 0.3112 0.3985
vn 0.8311 -0.1658 -0.5309
vn 0.0082 0.6798 -0.7333
vn 0.2004 0.5032 0.8406
vn 0.9622 0.1416 -0.2328
vn 0.0028 0.8122 -0.5833
vn 0.2209 -0.5874 0.7785
vn 0.3383 0.8444 0.4153
vn 0.9627 0.0003 -0.2705
vn 0.3704 -0.2154 0.9035
vn -0.2810 0.4729 -0.8351
vn 0.9755 0.0363 -0.2169
vn -0.9811 0.0984 0.1668
vn 0.3735 0.4887 0.7884
vn 0.9011 0.2453 -0.3576
vn 0.8751 0.2987 -0.3808
vn 0.4784 -0.1937 0.8565
vn -0.9663 -0.0394 0.2542
vn -0.2556 0.2233 -0.9407
vn -0.2857 0.8854 -0.3666
vn 0.3820 0.4858 0.7861
vn -0.9675 0.0872 0.2374
vn -0.2686 -0.0926 -0.9588
vn -0.0000 1.0000 -0.0000
vn -0.0236 0.2428 -0.9698
vn 0.0236 0.2428 0.9698
vn -0.9531 0.2816 0.1108
vn -0.3935 0.8887 0.2354
vn 0.0142 0.4114 -0.9114
vn -0.2481 0.0205 0.9685
vn -0.9899 -0.0795 0.1177
vn -0.4911 -0.7947 0.3568
vn 0.1876 -0.7947 0.5774
vn 0.6071 -0.7947 -0.0000
vn 0.1876 -0.7947 -0.5774
vn -0.4911 -0.7947 -0.3568
vn -0.7946 -0.1876 -0.5774
vn 0.3035 -0.1876 -0.9342
vn -0.3035 0.1876 -0.9342
vn 0.7946 0.1876 -0.5774
vn -0.1876 0.7947 -0.5774
vn 0.4911 0.7947 -0.3568
vn -0.1876 0.7947 0.5774
vn 0.4911 0.7947 0.3568
vn -0.6071 0.7947 -0.0000
vn -0.9822 0.1876 -0.0000
vn -0.7946 -0.1876 0.5774
vn -0.3035 0.1876 0.9342
vn 0.3035 -0.1876 0.9342
vn 0.7946 0.1876 0.5774
vn 0.9822 -0.1876 -0.0000
vn -0.6234 0.0532 -0.7801
vn -0.0362 -0.3160 -0.9481
vn 0.5284 0.1075 -0.8422
vn 0.2901 0.7384 -0.6088
vn -0.4217 0.7048 -0.5704
vn -0.6097 0.7845 0.1134
vn 0.5421 0.8388 0.0513
vn -0.0141 0.8673 0.4976
vn 0.9360 0.2699 0.2259
vn 0.0362 0.3160 0.9481
vn 0.6234 -0.0532 0.7801
vn -0.2901 -0.7384 0.6088
vn 0.4217 -0.7048 0.5704
vn -0.5284 -0.1075 0.8422
vn -0.9276 0.1821 0.3263
vn -0.9360 -0.2699 -0.2259
vn -0.5421 -0.8388 -0.0513
vn 0.0141 -0.8673 -0.4976
vn 0.6097 -0.7845 -0.1134
vn 0.9276 -0.1821 -0.3263
vt 0.909091 0.000000
vt 1.000000 0.157461
vt 0.818182 0.157461
vt 0.181819 0.000000
vt 0.272728 0.157461
vt 0.090910 0.157461
vt 0.363637 0.000000
vt 0.454546 0.157461
vt 0.545455 0.000000
vt 0.636364 0.157461
vt 0.727273 0.000000
vt 0.727273 0.314921
vt 0.545455 0.314921
vt 0.363637 0.314921
vt 0.636364 0.472382
vt 0.454546 0.472382
vt 0.000000 0.314921
vt 0.181819 0.314921
vt 0.090910 0.472382
vt 0.272728 0.472382
vt 0.909091 0.314921
vt 0.818182 0.472382
vt 0.625000 0.500000
vt 0.625000 0.250000
vt 0.625000 0.250000
vt 0.625000 0.500000
vt 0.500000 0.750000
vt 0.625000 0.750000
vt 0.625000 1.000000
vt 0.500000 1.000000
vt 0.500000 0.000000
vt 0.625000 0.000000
vt 0.500000 0.250000
vt 0.125000 0.500000
vt 0.375000 0.500000
vt 0.375000 0.750000
vt 0.125000 0.750000
vt 0.500000 0.500000
vt 0.625000 0.500000
vt 0.625000 0.750000
vt 0.625000 0.250000
vt 0.625000 0.000000
vt 0.625000 0.000000
vt 0.625000 0.750000
vt 0.625000 0.750000
vt 0.625000 1.000000
vt 0.625000 0.750000
vt 0.375000 0.250000
vt 0.375000 0.000000
vt 0.375000 1.000000
vt 0.875000 0.500000
vt 0.875000 0.750000
s 0
usemtl Material.003
f 26/23/21 25/24/21 24/25/21 23/26/21
f 139/27/22 15/28/22 19/29/22 138/30/22
f 138/31/23 19/32/23 17/25/23 140/33/23
f 18/34/24 14/35/24 16/36/24 20/37/24
f 137/38/25 13/26/25 15/28/25 139/27/25
f 140/33/26 17/25/26 13/26/26 137/38/26
f 142/28/27 141/39/27 55/26/27 53/28/27
f 28/29/28 27/28/28 21/28/28 22/29/28
f 25/24/29 28/32/29 22/32/29 24/25/29
f 27/28/30 26/23/30 23/26/30 21/28/30
f 32/40/31 29/39/31 26/23/31 27/28/31
f 31/41/32 30/32/32 28/32/32 25/24/32
f 30/29/33 32/40/33 27/28/33 28/29/33
f 31/41/34 25/24/34 34/24/34 33/41/34
f 13/26/35 17/25/35 31/41/35 29/39/35
f 32/40/36 30/29/36 59/29/36 60/40/36
f 17/25/37 19/32/37 30/32/37 31/41/37
f 15/28/38 13/26/38 29/39/38 32/40/38
f 35/23/39 36/39/39 40/39/39 39/23/39
f 25/24/40 26/23/40 35/23/40 34/24/40
f 29/39/41 31/41/41 33/41/41 36/39/41
f 26/23/42 29/39/42 36/39/42 35/23/42
f 39/23/43 40/39/43 44/39/43 43/23/43
f 33/41/44 34/24/44 38/24/44 37/41/44
f 36/39/45 33/41/45 37/41/45 40/39/45
f 34/24/46 35/23/46 39/23/46 38/24/46
f 44/39/47 41/41/47 45/41/47 48/39/47
f 37/41/48 38/24/48 42/24/48 41/41/48
f 40/39/49 37/41/49 41/41/49 44/39/49
f 38/24/50 39/23/50 166/23/50 165/24/50
f 47/23/51 48/39/51 52/39/51 51/23/51
f 42/24/52 43/23/52 47/23/52 46/24/52
f 43/23/53 44/39/53 48/39/53 47/23/53
f 41/41/54 42/24/54 46/24/54 45/41/54
f 51/23/55 52/39/55 164/39/55 163/23/55
f 45/41/56 46/24/56 50/24/56 49/41/56
f 48/39/57 45/41/57 49/41/57 52/39/57
f 46/24/58 47/23/58 51/23/58 50/24/58
f 53/28/59 55/26/59 111/26/59 109/28/59
f 144/41/60 143/42/60 54/32/60 56/25/60
f 143/29/61 142/28/61 53/28/61 54/29/61
f 144/41/62 56/25/62 145/25/62 148/41/62
f 57/28/63 60/40/63 64/40/63 61/28/63
f 15/28/64 32/40/64 60/40/64 57/28/64
f 30/32/65 19/32/65 58/32/65 59/32/65
f 19/29/66 15/28/66 57/28/66 58/29/66
f 64/40/67 63/29/67 67/29/67 68/40/67
f 58/29/68 57/28/68 61/28/68 62/29/68
f 60/40/69 59/29/69 63/29/69 64/40/69
f 59/32/70 58/32/70 62/32/70 63/32/70
f 95/43/71 93/32/71 70/32/71 71/32/71
f 63/32/72 62/32/72 66/32/72 67/32/72
f 61/28/73 64/40/73 68/40/73 65/28/73
f 62/29/74 61/28/74 65/28/74 66/29/74
f 119/28/75 117/44/75 76/40/75 73/28/75
f 96/45/76 94/40/76 72/40/76 69/28/76
f 93/46/77 96/45/77 69/28/77 70/29/77
f 71/29/78 72/40/78 97/40/78 98/29/78
f 81/47/79 82/29/79 123/29/79 121/47/79
f 120/29/80 119/28/80 73/28/80 74/29/80
f 82/43/81 84/32/81 120/32/81 118/32/81
f 118/32/81 120/32/81 74/32/81 75/32/81
f 71/32/81 70/32/81 79/32/81 80/32/81
f 72/40/82 71/29/82 80/29/82 77/47/82
f 70/29/80 69/28/80 78/45/80 79/29/80
f 69/28/75 72/40/75 77/47/75 78/45/75
f 80/32/81 79/32/81 84/32/81 82/43/81
f 77/47/82 80/29/82 82/29/82 81/47/82
f 78/45/75 77/47/75 81/47/75 83/40/75
f 83/40/80 84/29/80 79/29/80 78/45/80
f 86/29/83 85/28/83 88/40/83 87/29/83
f 75/32/84 74/32/84 86/32/84 87/32/84
f 73/28/85 76/40/85 88/40/85 85/28/85
f 74/29/86 73/28/86 85/28/86 86/29/86
f 68/40/87 67/29/87 90/46/87 91/44/87
f 66/29/88 65/28/88 92/28/88 89/29/88
f 65/28/89 68/40/89 91/44/89 92/28/89
f 67/32/90 66/32/90 89/32/90 90/32/90
f 91/44/91 90/46/91 95/46/91 94/40/91
f 89/29/92 92/28/92 96/45/92 93/46/92
f 92/28/93 91/44/93 94/40/93 96/45/93
f 90/32/94 89/32/94 93/32/94 95/43/94
f 100/43/95 98/32/95 102/32/95 104/43/95
f 94/40/96 95/46/96 100/46/96 99/40/96
f 95/43/97 71/32/97 98/32/97 100/43/97
f 72/40/98 94/40/98 99/40/98 97/40/98
f 104/43/99 102/32/99 106/32/99 108/43/99
f 98/29/100 97/40/100 101/40/100 102/29/100
f 99/40/101 100/46/101 104/46/101 103/40/101
f 97/40/102 99/40/102 103/40/102 101/40/102
f 108/43/103 106/32/103 182/32/103 184/43/103
f 102/29/104 101/40/104 105/40/104 106/29/104
f 103/40/105 104/46/105 108/46/105 107/40/105
f 101/40/106 103/40/106 107/40/106 105/40/106
f 112/25/107 110/32/107 114/32/107 116/25/107
f 56/25/108 54/32/108 110/32/108 112/25/108
f 54/29/109 53/28/109 109/28/109 110/29/109
f 55/26/110 56/25/110 112/25/110 111/26/110
f 116/25/111 114/32/111 178/32/111 180/25/111
f 110/29/112 109/28/112 113/28/112 114/29/112
f 111/26/113 112/25/113 116/25/113 115/26/113
f 109/28/114 111/26/114 115/26/114 113/28/114
f 117/44/115 118/46/115 75/29/115 87/29/115 88/40/115 76/40/115
f 84/29/80 83/40/80 119/28/80 120/29/80
f 83/40/75 81/47/75 117/44/75 119/28/75
f 123/43/116 124/32/116 128/32/116 127/43/116
f 117/44/117 81/47/117 121/47/117 122/44/117
f 118/46/118 117/44/118 122/44/118 124/46/118
f 82/43/119 118/32/119 124/32/119 123/43/119
f 128/46/120 126/44/120 130/44/120 132/46/120
f 122/44/121 121/47/121 125/47/121 126/44/121
f 124/46/122 122/44/122 126/44/122 128/46/122
f 121/47/123 123/29/123 127/29/123 125/47/123
f 131/43/124 132/32/124 136/32/124 135/43/124
f 125/47/125 127/29/125 131/29/125 129/47/125
f 127/43/126 128/32/126 132/32/126 131/43/126
f 126/44/127 125/47/127 129/47/127 130/44/127
f 133/47/128 135/29/128 136/46/128 134/44/128
f 130/44/129 129/47/129 133/47/129 134/44/129
f 132/46/130 130/44/130 134/44/130 136/46/130
f 129/47/131 131/29/131 135/29/131 133/47/131
f 18/48/132 140/33/132 137/38/132 14/35/132
f 14/35/133 137/38/133 139/27/133 16/36/133
f 20/49/134 138/31/134 140/33/134 18/48/134
f 16/36/135 139/27/135 138/30/135 20/50/135
f 23/26/136 24/25/136 144/41/136 141/39/136
f 22/29/137 21/28/137 142/28/137 143/29/137
f 24/25/138 22/32/138 143/42/138 144/41/138
f 21/28/139 23/26/139 141/39/139 142/28/139
f 148/41/140 145/25/140 149/25/140 152/41/140
f 56/25/141 55/26/141 146/26/141 145/25/141
f 141/39/142 144/41/142 148/41/142 147/39/142
f 55/26/143 141/39/143 147/39/143 146/26/143
f 151/39/144 152/41/144 156/41/144 155/39/144
f 145/25/145 146/26/145 150/26/145 149/25/145
f 147/39/146 148/41/146 152/41/146 151/39/146
f 146/26/147 147/39/147 151/39/147 150/26/147
f 154/26/148 155/39/148 159/39/148 158/26/148
f 150/26/149 151/39/149 155/39/149 154/26/149
f 152/41/150 149/25/150 153/25/150 156/41/150
f 149/25/151 150/26/151 154/26/151 153/25/151
f 159/39/152 160/41/152 157/25/152 158/26/152
f 156/41/153 153/25/153 157/25/153 160/41/153
f 153/25/154 154/26/154 158/26/154 157/25/154
f 155/39/155 156/41/155 160/41/155 159/39/155
f 164/39/156 161/41/156 162/24/156 163/23/156
f 49/41/157 50/24/157 162/24/157 161/41/157
f 52/39/158 49/41/158 161/41/158 164/39/158
f 50/24/159 51/23/159 163/23/159 162/24/159
f 167/24/160 165/24/160 169/24/160 171/24/160
f 39/23/161 43/23/161 168/23/161 166/23/161
f 43/23/162 42/24/162 167/24/162 168/23/162
f 42/24/163 38/24/163 165/24/163 167/24/163
f 171/24/164 169/24/164 173/24/164 175/24/164
f 168/23/165 167/24/165 171/24/165 172/23/165
f 166/23/166 168/23/166 172/23/166 170/23/166
f 165/24/167 166/23/167 170/23/167 169/24/167
f 173/24/168 174/23/168 176/23/168 175/24/168
f 172/23/169 171/24/169 175/24/169 176/23/169
f 170/23/170 172/23/170 176/23/170 174/23/170
f 169/24/171 170/23/171 174/23/171 173/24/171
f 179/26/172 180/51/172 178/52/172 177/28/172
f 114/29/173 113/28/173 177/28/173 178/29/173
f 115/26/174 116/25/174 180/25/174 179/26/174
f 113/28/175 115/26/175 179/26/175 177/28/175
f 183/40/176 184/46/176 182/29/176 181/40/176
f 106/29/177 105/40/177 181/40/177 182/29/177
f 107/40/178 108/46/178 184/46/178 183/40/178
f 105/40/179 107/40/179 183/40/179 181/40/179
usemtl Material.006
f 1/1/1 2/2/1 5/3/1
f 1/4/2 3/5/2 2/6/2
f 3/5/3 1/7/3 4/8/3
f 1/9/4 6/10/4 4/8/4
f 1/11/5 5/3/5 6/10/5
f 6/10/6 5/3/6 7/12/6
f 4/8/7 6/10/7 8/13/7
f 6/10/8 7/12/8 8/13/8
f 4/8/9 8/13/9 9/14/9
f 8/13/10 7/12/10 10/15/10
f 9/14/11 8/13/11 10/16/11
f 12/17/12 11/18/12 10/19/12
f 11/18/13 9/14/13 10/20/13
f 7/12/14 12/21/14 10/22/14
f 5/3/15 12/21/15 7/12/15
f 5/3/16 2/2/16 12/21/16
f 2/6/17 11/18/17 12/17/17
f 2/6/18 3/5/18 11/18/18
f 3/5/19 9/14/19 11/18/19
f 3/5/20 4/8/20 9/14/20
usemtl Material.005
f 185/1/180 186/2/180 189/3/180
f 185/4/181 187/5/181 186/6/181
f 187/5/182 185/7/182 188/8/182
f 185/9/183 190/10/183 188/8/183
f 185/11/184 189/3/184 190/10/184
f 190/10/185 189/3/185 191/12/185
f 188/8/186 190/10/186 192/13/186
f 190/10/187 191/12/187 192/13/187
f 188/8/188 192/13/188 193/14/188
f 192/13/189 191/12/189 194/15/189
f 193/14/190 192/13/190 194/16/190
f 196/17/191 195/18/191 194/19/191
f 195/18/192 193/14/192 194/20/192
f 191/12/193 196/21/193 194/22/193
f 189/3/194 196/21/194 191/12/194
f 189/3/195 186/2/195 196/21/195
f 186/6/196 195/18/196 196/17/196
f 186/6/197 187/5/197 195/18/197
f 187/5/198 193/14/198 195/18/198
f 187/5/199 188/8/199 193/14/199
usemtl Material.007
f 197/1/200 198/2/200 201/3/200
f 197/4/201 199/5/201 198/6/201
f 199/5/202 197/7/202 200/8/202
f 197/9/203 202/10/203 200/8/203
f 197/11/204 201/3/204 202/10/204
f 202/10/205 201/3/205 203/12/205
f 200/8/206 202/10/206 204/13/206
f 202/10/207 203/12/207 204/13/207
f 200/8/208 204/13/208 205/14/208
f 204/13/209 203/12/209 206/15/209
f 205/14/210 204/13/210 206/16/210
f 208/17/211 207/18/211 206/19/211
f 207/18/212 205/14/212 206/20/212
f 203/12/213 208/21/213 206/22/213
f 201/3/214 208/21/214 203/12/214
f 201/3/215 198/2/215 208/21/215
f 198/6/216 207/18/216 208/17/216
f 198/6/217 199/5/217 207/18/217
f 199/5/218 205/14/218 207/18/218
f 199/5/219 200/8/219 205/14/219
