# Blender 5.1.0
# www.blender.org
mtllib flat.mtl
o Cube
v -4.000000 0.000000 0.000000
v -4.000000 6.000000 0.000000
v -4.000000 0.000000 -10.000000
v -4.000000 6.000000 -10.000000
v 0.000000 0.000000 0.000000
v 0.000000 6.000000 0.000000
v 0.000000 0.000000 -10.000000
v 0.000000 6.000000 -10.000000
vn -1.0000 -0.0000 -0.0000
vn -0.0000 -0.0000 -1.0000
vn 1.0000 -0.0000 -0.0000
vn -0.0000 -0.0000 1.0000
vn -0.0000 -1.0000 -0.0000
vn -0.0000 1.0000 -0.0000
vt 0.375000 0.000000
vt 0.625000 0.000000
vt 0.625000 0.250000
vt 0.375000 0.250000
vt 0.625000 0.500000
vt 0.375000 0.500000
vt 0.625000 0.750000
vt 0.375000 0.750000
vt 0.625000 1.000000
vt 0.375000 1.000000
vt 0.125000 0.500000
vt 0.125000 0.750000
vt 0.875000 0.500000
vt 0.875000 0.750000
s 0
f 1/1/1 2/2/1 4/3/1 3/4/1
f 3/4/2 4/3/2 8/5/2 7/6/2
f 7/6/3 8/5/3 6/7/3 5/8/3
f 5/8/4 6/7/4 2/9/4 1/10/4
f 3/11/5 7/6/5 5/8/5 1/12/5
f 8/5/6 4/13/6 2/14/6 6/7/6
o Cube.001
v 0.000000 1.000000 0.000000
v 0.000000 1.761503 0.000000
v 0.000000 1.000000 -10.000000
v 0.000000 1.761503 -10.000000
v 0.676634 1.000000 0.000000
v 0.676634 1.761503 0.000000
v 0.676634 1.000000 -10.000000
v 0.676634 1.761503 -10.000000
vn -1.0000 -0.0000 -0.0000
vn -0.0000 -0.0000 -1.0000
vn 1.0000 -0.0000 -0.0000
vn -0.0000 -0.0000 1.0000
vn -0.0000 -1.0000 -0.0000
vn -0.0000 1.0000 -0.0000
vt 0.375000 0.000000
vt 0.625000 0.000000
vt 0.625000 0.250000
vt 0.375000 0.250000
vt 0.625000 0.500000
vt 0.375000 0.500000
vt 0.625000 0.750000
vt 0.375000 0.750000
vt 0.625000 1.000000
vt 0.375000 1.000000
vt 0.125000 0.500000
vt 0.125000 0.750000
vt 0.875000 0.500000
vt 0.875000 0.750000
s 0
f 9/15/7 10/16/7 12/17/7 11/18/7
f 11/18/8 12/17/8 16/19/8 15/20/8
f 15/20/9 16/19/9 14/21/9 13/22/9
f 13/22/10 14/21/10 10/23/10 9/24/10
f 11/25/11 15/20/11 13/22/11 9/26/11
f 16/19/12 12/27/12 10/28/12 14/21/12
o Cube.002
v 0.000000 3.000000 0.000000
v 0.000000 3.761503 0.000000
v 0.000000 3.000000 -10.000000
v 0.000000 3.761503 -10.000000
v 0.676634 3.000000 0.000000
v 0.676634 3.761503 0.000000
v 0.676634 3.000000 -10.000000
v 0.676634 3.761503 -10.000000
vn -1.0000 -0.0000 -0.0000
vn -0.0000 -0.0000 -1.0000
vn 1.0000 -0.0000 -0.0000
vn -0.0000 -0.0000 1.0000
vn -0.0000 -1.0000 -0.0000
vn -0.0000 1.0000 -0.0000
vt 0.375000 0.000000
vt 0.625000 0.000000
vt 0.625000 0.250000
vt 0.375000 0.250000
vt 0.625000 0.500000
vt 0.375000 0.500000
vt 0.625000 0.750000
vt 0.375000 0.750000
vt 0.625000 1.000000
vt 0.375000 1.000000
vt 0.125000 0.500000
vt 0.125000 0.750000
vt 0.875000 0.500000
vt 0.875000 0.750000
s 0
f 17/29/13 18/30/13 20/31/13 19/32/13
f 19/32/14 20/31/14 24/33/14 23/34/14
f 23/34/15 24/33/15 22/35/15 21/36/15
f 21/36/16 22/35/16 18/37/16 17/38/16
f 19/39/17 23/34/17 21/36/17 17/40/17
f 24/33/18 20/41/18 18/42/18 22/35/18
o Cube.003
v 0.000000 5.000000 0.000000
v 0.000000 5.761503 0.000000
v 0.000000 5.000000 -10.000000
v 0.000000 5.761503 -10.000000
v 0.676634 5.000000 0.000000
v 0.676634 5.761503 0.000000
v 0.676634 5.000000 -10.000000
v 0.676634 5.761503 -10.000000
vn -1.0000 -0.0000 -0.0000
vn -0.0000 -0.0000 -1.0000
vn 1.0000 -0.0000 -0.0000
vn -0.0000 -0.0000 1.0000
vn -0.0000 -1.0000 -0.0000
vn -0.0000 1.0000 -0.0000
vt 0.375000 0.000000
vt 0.625000 0.000000
vt 0.625000 0.250000
vt 0.375000 0.250000
vt 0.625000 0.500000
vt 0.375000 0.500000
vt 0.625000 0.750000
vt 0.375000 0.750000
vt 0.625000 1.000000
vt 0.375000 1.000000
vt 0.125000 0.500000
vt 0.125000 0.750000
vt 0.875000 0.500000
vt 0.875000 0.750000
s 0
f 25/43/19 26/44/19 28/45/19 27/46/19
f 27/46/20 28/45/20 32/47/20 31/48/20
f 31/48/21 32/47/21 30/49/21 29/50/21
f 29/50/22 30/49/22 26/51/22 25/52/22
f 27/53/23 31/48/23 29/50/23 25/54/23
f 32/47/24 28/55/24 26/56/24 30/49/24
o Cube.005
v -3.491913 2.000000 -10.430833
v -3.491913 2.447853 -10.430833
v -3.491913 2.000000 -10.000000
v -3.491913 2.447853 -10.000000
v -0.487470 0.000000 -10.430833
v -0.487470 0.447853 -10.430833
v -0.487470 0.000000 -10.000000
v -0.487470 0.447853 -10.000000
v 0.000000 0.447853 -10.000000
v 0.000000 0.000000 -10.000000
v 0.000000 0.000000 -10.430833
v 0.000000 0.447853 -10.430833
v -4.000000 2.000000 -10.000000
v -4.000000 2.000000 -10.430833
v -4.000000 2.447853 -10.430833
v -4.000000 2.447853 -10.000000
vn -0.0000 -0.0000 -1.0000
vn -0.0000 -1.0000 -0.0000
vn -0.0000 -0.0000 1.0000
vn 0.5541 0.8324 -0.0000
vn -0.5541 -0.8324 -0.0000
vn -1.0000 -0.0000 -0.0000
vn -0.0000 1.0000 -0.0000
vn 1.0000 -0.0000 -0.0000
vt 0.625000 0.250000
vt 0.375000 0.250000
vt 0.625000 0.500000
vt 0.375000 0.500000
vt 0.625000 0.750000
vt 0.375000 0.750000
vt 0.625000 1.000000
vt 0.375000 1.000000
vt 0.125000 0.500000
vt 0.125000 0.750000
vt 0.875000 0.500000
vt 0.875000 0.750000
vt 0.375000 0.000000
vt 0.625000 0.000000
s 0
f 36/57/25 35/58/25 45/58/25 48/57/25
f 35/58/25 36/57/25 40/59/25 39/60/25
f 40/59/26 38/61/26 44/61/26 41/59/26
f 37/62/27 38/61/27 34/63/27 33/64/27
f 35/65/28 39/60/28 37/62/28 33/66/28
f 40/59/29 36/67/29 34/68/29 38/61/29
f 42/60/30 41/59/30 44/61/30 43/62/30
f 39/60/25 40/59/25 41/59/25 42/60/25
f 38/61/27 37/62/27 43/62/27 44/61/27
f 37/62/31 39/60/31 42/60/31 43/62/31
f 46/69/32 47/70/32 48/57/32 45/58/32
f 33/64/27 34/63/27 47/63/27 46/64/27
f 34/68/26 36/67/26 48/67/26 47/68/26
f 35/65/31 33/66/31 46/66/31 45/65/31
o Cube.006
v -0.497778 4.000000 -9.999999
v -0.497778 4.447853 -9.999999
v -0.497778 4.000000 -10.430832
v -0.497778 4.447853 -10.430832
v -3.502221 2.000000 -9.999999
v -3.502221 2.447853 -9.999999
v -3.502221 2.000000 -10.430832
v -3.502221 2.447853 -10.430832
v -3.989691 2.447853 -10.430832
v -3.989691 2.000000 -10.430832
v -3.989691 2.000000 -9.999999
v -3.989691 2.447853 -9.999999
v 0.010309 4.000000 -10.430832
v 0.010309 4.000000 -9.999999
v 0.010309 4.447853 -9.999999
v 0.010309 4.447853 -10.430832
vn -0.0000 -0.0000 1.0000
vn -0.0000 -1.0000 -0.0000
vn -0.0000 -0.0000 -1.0000
vn -0.5541 0.8324 -0.0000
vn 0.5541 -0.8324 -0.0000
vn 1.0000 -0.0000 -0.0000
vn -0.0000 1.0000 -0.0000
vn -1.0000 -0.0000 -0.0000
vt 0.625000 0.250000
vt 0.375000 0.250000
vt 0.625000 0.500000
vt 0.375000 0.500000
vt 0.625000 0.750000
vt 0.375000 0.750000
vt 0.625000 1.000000
vt 0.375000 1.000000
vt 0.125000 0.500000
vt 0.125000 0.750000
vt 0.875000 0.500000
vt 0.875000 0.750000
vt 0.375000 0.000000
vt 0.625000 0.000000
s 0
f 52/71/33 51/72/33 61/72/33 64/71/33
f 51/72/33 52/71/33 56/73/33 55/74/33
f 56/73/34 54/75/34 60/75/34 57/73/34
f 53/76/35 54/75/35 50/77/35 49/78/35
f 51/79/36 55/74/36 53/76/36 49/80/36
f 56/73/37 52/81/37 50/82/37 54/75/37
f 58/74/38 57/73/38 60/75/38 59/76/38
f 55/74/33 56/73/33 57/73/33 58/74/33
f 54/75/35 53/76/35 59/76/35 60/75/35
f 53/76/39 55/74/39 58/74/39 59/76/39
f 62/83/40 63/84/40 64/71/40 61/72/40
f 49/78/35 50/77/35 63/77/35 62/78/35
f 50/82/34 52/81/34 64/81/34 63/82/34
f 51/79/39 49/80/39 62/80/39 61/79/39
o Cube.007
v -3.491913 6.000000 -10.430833
v -3.491913 6.447853 -10.430833
v -3.491913 6.000000 -10.000000
v -3.491913 6.447853 -10.000000
v -0.487470 4.000000 -10.430833
v -0.487470 4.447853 -10.430833
v -0.487470 4.000000 -10.000000
v -0.487470 4.447853 -10.000000
v 0.000000 4.447853 -10.000000
v 0.000000 4.000000 -10.000000
v 0.000000 4.000000 -10.430833
v 0.000000 4.447853 -10.430833
v -4.000000 6.000000 -10.000000
v -4.000000 6.000000 -10.430833
v -4.000000 6.447853 -10.430833
v -4.000000 6.447853 -10.000000
v -3.491913 6.447853 -9.465692
v -3.491913 6.000000 -9.465692
v -4.000000 6.447853 -9.465692
v -4.000000 6.000000 -9.465692
vn -0.0000 1.0000 -0.0000
vn -0.0000 -0.0000 -1.0000
vn -0.0000 -1.0000 -0.0000
vn -0.0000 -0.0000 1.0000
vn 0.5541 0.8324 -0.0000
vn -0.5541 -0.8324 -0.0000
vn -1.0000 -0.0000 -0.0000
vn 1.0000 -0.0000 -0.0000
vt 0.125000 0.500000
vt 0.375000 0.250000
vt 0.625000 0.250000
vt 0.625000 0.500000
vt 0.375000 0.500000
vt 0.625000 0.750000
vt 0.375000 0.750000
vt 0.625000 1.000000
vt 0.375000 1.000000
vt 0.125000 0.750000
vt 0.875000 0.500000
vt 0.875000 0.750000
vt 0.375000 0.000000
vt 0.625000 0.000000
s 0
f 67/85/41 77/85/41 84/85/41 82/85/41
f 67/86/42 68/87/42 72/88/42 71/89/42
f 72/88/43 70/90/43 76/90/43 73/88/43
f 69/91/44 70/90/44 66/92/44 65/93/44
f 67/85/45 71/89/45 69/91/45 65/94/45
f 72/88/46 68/95/46 66/96/46 70/90/46
f 74/89/47 73/88/47 76/90/47 75/91/47
f 71/89/42 72/88/42 73/88/42 74/89/42
f 70/90/44 69/91/44 75/91/44 76/90/44
f 69/91/41 71/89/41 74/89/41 75/91/41
f 78/97/48 79/98/48 80/87/48 77/86/48
f 65/93/44 66/92/44 79/92/44 78/93/44
f 66/96/43 68/95/43 80/95/43 79/96/43
f 67/85/41 65/94/41 78/94/41 77/85/41
f 81/87/42 82/86/42 84/86/42 83/87/42
f 68/87/47 67/86/47 82/86/47 81/87/47
f 80/95/43 68/95/43 81/95/43 83/95/43
f 77/86/48 80/87/48 83/87/48 84/86/48
o Cube.010
v -0.135241 6.000000 0.000000
v -0.135241 6.149577 0.000000
v -0.135241 6.000000 -10.000000
v -0.135241 6.149577 -10.000000
v 0.000000 6.000000 0.000000
v 0.000000 6.149577 0.000000
v 0.000000 6.000000 -10.000000
v 0.000000 6.149577 -10.000000
vn -1.0000 -0.0000 -0.0000
vn -0.0000 -0.0000 -1.0000
vn 1.0000 -0.0000 -0.0000
vn -0.0000 -0.0000 1.0000
vn -0.0000 -1.0000 -0.0000
vn -0.0000 1.0000 -0.0000
vt 0.375000 0.000000
vt 0.625000 0.000000
vt 0.625000 0.250000
vt 0.375000 0.250000
vt 0.625000 0.500000
vt 0.375000 0.500000
vt 0.625000 0.750000
vt 0.375000 0.750000
vt 0.625000 1.000000
vt 0.375000 1.000000
vt 0.125000 0.500000
vt 0.125000 0.750000
vt 0.875000 0.500000
vt 0.875000 0.750000
s 0
f 85/99/49 86/100/49 88/101/49 87/102/49
f 87/102/50 88/101/50 92/103/50 91/104/50
f 91/104/51 92/103/51 90/105/51 89/106/51
f 89/106/52 90/105/52 86/107/52 85/108/52
f 87/109/53 91/104/53 89/106/53 85/110/53
f 92/103/54 88/111/54 86/112/54 90/105/54
o Cube.011
v -3.864177 6.149576 0.000000
v -3.864177 6.000000 0.000000
v -3.864187 6.149576 -10.000000
v -3.864187 6.000000 -10.000000
v -3.999418 6.149576 0.000000
v -3.999418 6.000000 0.000000
v -3.999428 6.149576 -10.000000
v -3.999428 6.000000 -10.000000
vn 1.0000 -0.0000 -0.0000
vn -0.0000 -0.0000 -1.0000
vn -1.0000 -0.0000 -0.0000
vn -0.0000 -0.0000 1.0000
vn -0.0000 1.0000 -0.0000
vn -0.0000 -1.0000 -0.0000
vt 0.375000 0.000000
vt 0.625000 0.000000
vt 0.625000 0.250000
vt 0.375000 0.250000
vt 0.625000 0.500000
vt 0.375000 0.500000
vt 0.625000 0.750000
vt 0.375000 0.750000
vt 0.625000 1.000000
vt 0.375000 1.000000
vt 0.125000 0.500000
vt 0.125000 0.750000
vt 0.875000 0.500000
vt 0.875000 0.750000
s 0
f 93/113/55 94/114/55 96/115/55 95/116/55
f 95/116/56 96/115/56 100/117/56 99/118/56
f 99/118/57 100/117/57 98/119/57 97/120/57
f 97/120/58 98/119/58 94/121/58 93/122/58
f 95/123/59 99/118/59 97/120/59 93/124/59
f 100/117/60 96/125/60 94/126/60 98/119/60
o Cube.012
v 0.000000 6.000000 -9.864758
v 0.000000 6.149577 -9.864758
v -4.000000 6.000000 -9.864759
v -4.000000 6.149577 -9.864759
v 0.000000 6.000000 -10.000000
v 0.000000 6.149577 -10.000000
v -4.000000 6.000000 -10.000001
v -4.000000 6.149577 -10.000001
vn -0.0000 -0.0000 1.0000
vn -1.0000 -0.0000 -0.0000
vn -0.0000 -0.0000 -1.0000
vn 1.0000 -0.0000 -0.0000
vn -0.0000 -1.0000 -0.0000
vn -0.0000 1.0000 -0.0000
vt 0.375000 0.000000
vt 0.625000 0.000000
vt 0.625000 0.250000
vt 0.375000 0.250000
vt 0.625000 0.500000
vt 0.375000 0.500000
vt 0.625000 0.750000
vt 0.375000 0.750000
vt 0.625000 1.000000
vt 0.375000 1.000000
vt 0.125000 0.500000
vt 0.125000 0.750000
vt 0.875000 0.500000
vt 0.875000 0.750000
s 0
f 101/127/61 102/128/61 104/129/61 103/130/61
f 103/130/62 104/129/62 108/131/62 107/132/62
f 107/132/63 108/131/63 106/133/63 105/134/63
f 105/134/64 106/133/64 102/135/64 101/136/64
f 103/137/65 107/132/65 105/134/65 101/138/65
f 108/131/66 104/139/66 102/140/66 106/133/66
o Cube.013
v 0.000000 6.000000 0.000218
v 0.000000 6.149577 0.000218
v -4.000000 6.000000 0.000218
v -4.000000 6.149577 0.000218
v 0.000000 6.000000 -0.135023
v 0.000000 6.149577 -0.135023
v -4.000000 6.000000 -0.135023
v -4.000000 6.149577 -0.135023
vn -0.0000 -0.0000 1.0000
vn -1.0000 -0.0000 -0.0000
vn -0.0000 -0.0000 -1.0000
vn 1.0000 -0.0000 -0.0000
vn -0.0000 -1.0000 -0.0000
vn -0.0000 1.0000 -0.0000
vt 0.375000 0.000000
vt 0.625000 0.000000
vt 0.625000 0.250000
vt 0.375000 0.250000
vt 0.625000 0.500000
vt 0.375000 0.500000
vt 0.625000 0.750000
vt 0.375000 0.750000
vt 0.625000 1.000000
vt 0.375000 1.000000
vt 0.125000 0.500000
vt 0.125000 0.750000
vt 0.875000 0.500000
vt 0.875000 0.750000
s 0
f 109/141/67 110/142/67 112/143/67 111/144/67
f 111/144/68 112/143/68 116/145/68 115/146/68
f 115/146/69 116/145/69 114/147/69 113/148/69
f 113/148/70 114/147/70 110/149/70 109/150/70
f 111/151/71 115/146/71 113/148/71 109/152/71
f 116/145/72 112/153/72 110/154/72 114/147/72
